<svg width="24" height="24" viewBox="0 0 24 24" fill="none" xmlns="http://www.w3.org/2000/svg">
<path d="M20.1909 10.2378H3.90478C3.40522 10.2379 3.00013 9.83307 3 9.33351C3 9.33335 3 9.33319 3 9.33304V6.61869C2.99985 6.22933 3.24906 5.88363 3.61852 5.76074L11.7616 3.04639C11.9474 2.98454 12.1483 2.98454 12.3341 3.04639L20.4772 5.76074C20.8466 5.88364 21.0958 6.22934 21.0957 6.61869V9.33304C21.0958 9.8326 20.6909 10.2377 20.1913 10.2378C20.1912 10.2378 20.191 10.2378 20.1909 10.2378ZM20.1909 22H3.90478C3.40522 22.0001 3.00013 21.5953 3 21.0957C3 21.0955 3 21.0954 3 21.0952V19.2857C3.00164 17.7872 4.21593 16.5729 5.71435 16.5713H18.3813C19.8797 16.5729 21.094 17.7872 21.0957 19.2857V21.0952C21.0958 21.5948 20.6909 21.9999 20.1913 22C20.1912 22 20.191 22 20.1909 22Z" fill="url(#paint0_radial)"/>
<path d="M7.84033 16.5713V10.2378H5.12598V16.6399C5.26845 16.5976 5.41536 16.5715 5.56732 16.5713H7.84033Z" fill="#7BAEFF"/>
<path d="M15.9097 10.2378V16.5713H18.3868C18.468 16.5714 18.5452 16.591 18.624 16.6035V10.2378H15.9097Z" fill="#7BAEFF"/>
<path d="M10.5176 10.2378V16.5713H12.9947C13.0759 16.5714 13.1531 16.591 13.2319 16.6035V10.2378H10.5176Z" fill="#7BAEFF"/>
<defs>
<radialGradient id="paint0_radial" cx="0" cy="0" r="1" gradientUnits="userSpaceOnUse" gradientTransform="translate(12.0478 12.5) rotate(89.6465) scale(7.66346 7.25144)">
<stop stop-color="#1161F4"/>
<stop offset="1" stop-color="#277DFE"/>
</radialGradient>
</defs>
</svg>
