<svg width="24" height="24" viewBox="0 0 24 24" fill="none" xmlns="http://www.w3.org/2000/svg">
<path d="M20.23 7.24009L12 12.0001L3.77002 7.24009C3.939 6.94761 4.17997 6.7032 4.47002 6.53009L11 2.76009C11.6207 2.41005 12.3793 2.41005 13 2.76009L19.53 6.53009C19.8201 6.7032 20.061 6.94761 20.23 7.24009Z" fill="#C0D8FF"/>
<path d="M12 12V21.5C11.6847 21.4996 11.3736 21.4278 11.09 21.29L4.5 17.48C3.88228 17.1226 3.50135 16.4636 3.5 15.75V8.24999C3.50166 7.89571 3.59466 7.54784 3.77 7.23999L12 12Z" fill="#7BAEFF"/>
<path d="M20.5 8.24999V15.75C20.4986 16.4636 20.1177 17.1226 19.5 17.48L12.88 21.3C12.6047 21.4298 12.3044 21.4981 12 21.5V12L20.23 7.23999C20.4053 7.54784 20.4983 7.89571 20.5 8.24999Z" fill="url(#paint0_radial)"/>
<defs>
<radialGradient id="paint0_radial" cx="0" cy="0" r="1" gradientUnits="userSpaceOnUse" gradientTransform="translate(16.25 14.37) rotate(89.7787) scale(5.75156 3.40623)">
<stop stop-color="#1161F4"/>
<stop offset="1" stop-color="#277DFE"/>
</radialGradient>
</defs>
</svg>
