<svg width="68" height="48" viewBox="0 0 68 48" fill="none" xmlns="http://www.w3.org/2000/svg">
<path d="M5.25332 35.262H4.64973L4.04779 38.6287H4.63407C6.02347 38.6287 6.64355 37.9064 6.64355 36.5516C6.64355 35.6973 6.17437 35.262 5.25332 35.262ZM4.48234 40.4189H3.72868L2.99399 44.6357H0.651367L2.62458 33.4718H5.72086C7.54482 33.4718 9.11893 34.176 9.11893 36.3504C9.11893 39.163 7.24467 40.4189 4.48234 40.4189Z" fill="#939191"/>
<path d="M12.9076 38.7099C12.0426 38.7099 11.1933 40.1504 11.1933 41.7369C11.1933 42.554 11.3871 43.0339 11.7861 43.0339C12.4747 43.0339 13.4526 41.4639 13.8204 39.414L13.8847 39.062C13.7404 38.9482 13.4996 38.7099 12.9076 38.7099ZM15.0539 44.6353H12.8919L13.0849 43.513C12.7179 44.0902 12.1712 44.7969 10.9385 44.7969C9.91189 44.7969 8.91992 43.9937 8.91992 41.9777C8.91992 39.0784 10.6342 36.9469 12.6181 36.9469C13.7404 36.9469 14.156 37.4112 14.3019 37.5563L14.3811 37.1085H16.384L15.0539 44.6353Z" fill="#939191"/>
<path d="M21.09 44.1731C19.9859 46.3814 18.8818 47.6784 16.3182 48L16.0791 46.4308C17.0562 46.1257 18.0482 45.631 18.5941 44.5236L18.8159 44.075L17.5048 37.1098H19.7955L20.371 41.2088L22.2609 37.1098H24.6464L21.09 44.1731Z" fill="#939191"/>
<path d="M35.1241 44.6357H32.9621L33.8427 39.671C33.9054 39.3519 33.8906 39.0303 33.5236 39.0303C32.8499 39.0303 31.6477 40.6324 31.3129 42.5545L30.9452 44.6357H28.7798L29.6638 39.671C29.7256 39.3519 29.7124 39.0303 29.3422 39.0303C28.6693 39.0303 27.4696 40.6324 27.1307 42.5545L26.7638 44.6357H24.6025L25.9309 37.109H28.0921L27.7887 38.8711C28.2694 38.0845 29.0223 36.9474 30.3185 36.9474C31.4877 36.9474 32.0015 37.7011 31.9198 38.9033C32.3362 38.2123 33.122 36.9474 34.4991 36.9474C35.8291 36.9474 36.309 37.9254 36.0361 39.4615L35.1241 44.6357Z" fill="#939191"/>
<path d="M41.4156 38.4848C40.7436 38.4848 40.1021 39.3349 39.8456 40.552C41.2713 40.3598 42.1363 40.0242 42.1363 39.1889C42.1363 38.7099 41.8469 38.4848 41.4156 38.4848ZM39.7335 41.7864C39.7665 42.6159 40.1194 43.0339 40.8392 43.0339C41.6721 43.0339 42.4711 42.601 43.0656 42.2341L43.6585 43.6425C43.1613 44.0111 42.0885 44.7969 40.5358 44.7969C38.8537 44.7969 37.5088 43.9805 37.5088 41.7055C37.5088 39.062 38.965 36.9469 41.5294 36.9469C43.4507 36.9469 44.2827 37.7814 44.2827 39.062C44.2827 41.144 42.5849 41.6412 39.7335 41.7864Z" fill="#939191"/>
<path d="M51.458 44.6357H49.296L50.1766 39.671C50.2418 39.3519 50.2253 39.0303 49.8575 39.0303C49.1847 39.0303 47.9824 40.6324 47.6468 42.5545L47.2799 44.6357H45.1162L46.4454 37.109H48.6083L48.3048 38.8711C48.7847 38.0845 49.5368 36.9474 50.8338 36.9474C52.163 36.9474 52.6429 37.9254 52.3733 39.4615L51.458 44.6357Z" fill="#939191"/>
<path d="M58.1857 38.7099H57.0651L56.4095 42.4246C56.3419 42.7462 56.4549 42.9045 56.6957 42.9045C56.92 42.9045 57.0972 42.8426 57.3059 42.7462L57.5285 44.2345C57.2077 44.4431 56.5992 44.7969 55.7342 44.7969C54.6144 44.7969 53.9589 44.0902 54.2285 42.5705L54.903 38.7099H54.1016L54.3877 37.1085H55.19L55.6377 35.4751L57.7214 35.0257L57.3512 37.1085H58.4735L58.1857 38.7099Z" fill="#939191"/>
<path d="M64.2229 39.3992C63.7595 39.0784 63.0215 38.7272 62.4476 38.7272C61.9974 38.7272 61.6923 38.8863 61.6923 39.2549C61.6923 39.5905 62.0304 39.7373 62.479 39.9269L62.8945 40.1034C63.6631 40.4233 64.5132 40.9354 64.5132 42.2811C64.5132 43.8824 63.6631 44.7969 61.741 44.7969C60.1726 44.7969 59.2573 44.1067 58.6826 43.6919L59.5303 42.2028C60.0918 42.6167 60.9716 43.0174 61.5497 43.0174C62.0469 43.0174 62.2522 42.8426 62.2522 42.474C62.2522 42.1055 61.9009 41.9438 61.4532 41.7682L61.0203 41.5942C60.2534 41.2891 59.4346 40.7762 59.4346 39.4454C59.4346 37.7171 60.7663 36.9477 62.4295 36.9477C63.7752 36.9477 64.6097 37.6214 64.9923 37.9076L64.2229 39.3992Z" fill="#939191"/>
<path d="M35.1451 24.2471H30.4755L30.022 26.8429H33.6386L33.303 28.7674H29.6889L28.8511 33.4873H26.5068L28.4842 22.3234H35.4955L35.1451 24.2471Z" fill="#939191"/>
<path d="M38.096 27.5595C37.2311 27.5595 36.3818 29.0017 36.3818 30.5865C36.3818 31.4045 36.5739 31.8844 36.9746 31.8844C37.6631 31.8844 38.6411 30.316 39.0072 28.2653L39.0732 27.9132C38.9297 27.8002 38.6897 27.5595 38.096 27.5595ZM40.2408 33.4857H38.0787L38.2717 32.3643C37.9039 32.9415 37.3597 33.6465 36.1253 33.6465C35.1004 33.6465 34.1084 32.845 34.1084 30.8289C34.1084 27.9289 35.8227 25.7982 37.8058 25.7982C38.9297 25.7982 39.3444 26.2632 39.4896 26.4067L39.5696 25.959H41.5716L40.2408 33.4857Z" fill="#939191"/>
<path d="M47.5661 28.2496C47.1002 27.9289 46.3638 27.576 45.7875 27.576C45.3389 27.576 45.0338 27.7376 45.0338 28.1045C45.0338 28.4409 45.3719 28.5844 45.818 28.7774L46.2344 28.9547C47.0037 29.2746 47.853 29.785 47.853 31.1315C47.853 32.7345 47.0037 33.6465 45.0825 33.6465C43.5125 33.6465 42.6013 32.958 42.0225 32.5432L42.8734 31.0524C43.4317 31.468 44.314 31.8687 44.8903 31.8687C45.3843 31.8687 45.5953 31.6931 45.5953 31.3245C45.5953 30.9559 45.2424 30.7959 44.7939 30.6186L44.3618 30.4438C43.5941 30.1387 42.7761 29.6275 42.7761 28.2975C42.7761 26.5683 44.1062 25.799 45.771 25.799C47.115 25.799 47.9487 26.471 48.3338 26.758L47.5661 28.2496Z" fill="#939191"/>
<path d="M53.5701 27.5595H52.4495L51.7915 31.2775C51.7289 31.5966 51.8394 31.7574 52.0793 31.7574C52.3052 31.7574 52.4809 31.6922 52.6887 31.5966L52.9113 33.0849C52.5914 33.2944 51.9828 33.6465 51.1195 33.6465C49.9997 33.6465 49.3409 32.9415 49.6147 31.421L50.2875 27.5595H49.4844L49.7738 25.959H50.5745L51.023 24.3255L53.1051 23.8761L52.7357 25.959H53.8579L53.5701 27.5595Z" fill="#939191"/>
<path d="M58.101 27.336C57.429 27.336 56.7866 28.1845 56.5327 29.4007C57.9575 29.2094 58.8217 28.8738 58.8217 28.041C58.8217 27.5595 58.5347 27.336 58.101 27.336ZM56.4189 30.6351C56.4519 31.468 56.804 31.8844 57.5255 31.8844C58.3591 31.8844 59.1581 31.4523 59.7518 31.0845L60.3439 32.4929C59.8466 32.8615 58.773 33.6465 57.2204 33.6465C55.5391 33.6465 54.1934 32.8302 54.1934 30.5568C54.1934 27.9132 55.6504 25.799 58.2156 25.799C60.1352 25.799 60.9672 26.6318 60.9672 27.9132C60.9672 29.9953 59.2703 30.4917 56.4189 30.6351Z" fill="#939191"/>
<path d="M67.0863 28.1383C65.997 28.1383 64.7462 29.0668 64.3314 31.4061L63.9628 33.4873H61.8008L63.1308 25.9598H65.2442L64.9729 27.5454C65.4668 26.4248 66.0449 25.7998 67.5027 25.7998L67.0863 28.1383Z" fill="#939191"/>
<path d="M34.4398 15.5252V15.5631C34.4365 16.1007 34.0118 16.64 33.1707 17.0457L4.98347 30.6982C3.28897 31.5203 2.66229 30.8507 3.58499 29.2115L8.7427 20.0472C9.49059 18.7097 9.91855 17.1677 9.91855 15.5252C9.91855 13.8818 9.49059 12.339 8.7427 11.0032L3.58499 1.83889C2.66229 0.198807 3.28897 -0.470749 4.98347 0.351353L33.1707 14.003C34.0118 14.4128 34.4365 14.9496 34.4398 15.4873V15.5252Z" fill="#939191"/>
</svg>
