<svg width="50" height="50" viewBox="0 0 50 50" fill="none" xmlns="http://www.w3.org/2000/svg">
<rect y="0.000488281" width="50" height="50" rx="10" fill="#F5F6FA"/>
<path d="M25.0001 20.0688C23.9845 20.0688 22.9918 20.37 22.1473 20.9342C21.3029 21.4985 20.6448 22.3004 20.2561 23.2387C19.8675 24.177 19.7658 25.2094 19.9639 26.2055C20.162 27.2016 20.6511 28.1165 21.3692 28.8347C22.0873 29.5528 23.0023 30.0418 23.9984 30.24C24.9944 30.4381 26.0269 30.3364 26.9652 29.9478C27.9034 29.5591 28.7054 28.901 29.2696 28.0565C29.8339 27.2121 30.135 26.2193 30.135 25.2037C30.135 24.5294 30.0022 23.8617 29.7442 23.2387C29.4861 22.6157 29.1079 22.0496 28.6311 21.5728C28.1543 21.096 27.5882 20.7177 26.9652 20.4597C26.3422 20.2016 25.6745 20.0688 25.0001 20.0688ZM25.0001 28.5373C24.3408 28.5373 23.6963 28.3418 23.1481 27.9755C22.5999 27.6092 22.1726 27.0885 21.9203 26.4794C21.668 25.8703 21.602 25.2 21.7306 24.5533C21.8592 23.9067 22.1767 23.3127 22.6429 22.8465C23.1092 22.3803 23.7031 22.0628 24.3498 21.9342C24.9965 21.8055 25.6667 21.8716 26.2759 22.1239C26.885 22.3762 27.4056 22.8035 27.7719 23.3517C28.1382 23.8999 28.3337 24.5444 28.3337 25.2037C28.3338 25.6415 28.2476 26.075 28.0801 26.4795C27.9126 26.884 27.667 27.2515 27.3575 27.5611C27.0479 27.8706 26.6804 28.1162 26.2759 28.2837C25.8714 28.4512 25.4379 28.5374 25.0001 28.5373Z" fill="#AAB0B7"/>
<path d="M34.9395 21.0808C34.9231 20.2513 34.766 19.4305 34.475 18.6535C34.2235 17.9864 33.8299 17.382 33.3215 16.8821C32.8224 16.3732 32.2181 15.9796 31.5509 15.7286C30.774 15.4374 29.9532 15.2803 29.1236 15.2642C28.0574 15.2156 27.7165 15.2036 25.0008 15.2036C22.2851 15.2036 21.944 15.2149 20.8772 15.2642C20.0476 15.2805 19.2269 15.4376 18.4499 15.7286C17.7826 15.9798 17.1781 16.3734 16.6785 16.8821C16.1693 17.3813 15.7757 17.986 15.5251 18.6535C15.2341 19.4305 15.077 20.2513 15.0606 21.0808C15.0113 22.147 15 22.4879 15 25.2036C15 27.9193 15.0113 28.2601 15.0606 29.3264C15.077 30.1559 15.234 30.9767 15.5251 31.7537C15.7757 32.4212 16.1694 33.0259 16.6785 33.5251C17.1784 34.0335 17.7828 34.4271 18.4499 34.6785C19.2269 34.9695 20.0477 35.1265 20.8772 35.143C21.944 35.1915 22.2843 35.2036 25 35.2036C27.7157 35.2036 28.0566 35.1923 29.1228 35.143C29.9523 35.1266 30.7731 34.9696 31.5501 34.6785C32.2145 34.4217 32.8179 34.0288 33.3215 33.5251C33.8252 33.0215 34.2181 32.4181 34.475 31.7537C34.7663 30.9768 34.9234 30.156 34.9395 29.3264C34.988 28.2594 34.9992 27.9193 34.9992 25.2036C34.9992 22.4879 34.988 22.147 34.9395 21.0808ZM33.1405 29.2449C33.1328 29.879 33.0164 30.5071 32.7965 31.1019C32.63 31.5332 32.3751 31.9248 32.0482 32.2516C31.7213 32.5784 31.3295 32.8331 30.8982 32.9994C30.3035 33.2198 29.6753 33.3362 29.0411 33.3434C27.987 33.3918 27.6705 33.4015 24.9999 33.4015C22.3294 33.4015 22.0137 33.3918 20.9599 33.3434C20.3258 33.3361 19.6976 33.2197 19.1029 32.9994C18.6685 32.8388 18.2755 32.5833 17.9526 32.2514C17.6202 31.9292 17.3646 31.5364 17.2046 31.102C16.9841 30.5073 16.8678 29.8791 16.8606 29.2449C16.8121 28.1908 16.8025 27.8742 16.8025 25.2037C16.8025 22.5332 16.813 22.2175 16.8606 21.1625C16.8686 20.5284 16.985 19.9004 17.2046 19.3055C17.3651 18.8711 17.6207 18.4781 17.9526 18.1552C18.275 17.8226 18.6681 17.567 19.1029 17.4072C19.6975 17.1868 20.3258 17.0704 20.9599 17.0632C22.014 17.0148 22.3306 17.0051 24.9999 17.0051C27.6693 17.0051 27.9862 17.0156 29.0411 17.0632C29.6752 17.0712 30.3033 17.1876 30.8982 17.4072C31.3297 17.5735 31.7215 17.8283 32.0484 18.1553C32.3754 18.4822 32.6302 18.874 32.7965 19.3055C33.0169 19.9001 33.1333 20.5283 33.1405 21.1625C33.189 22.2175 33.1986 22.5332 33.1986 25.2037C33.1986 27.8742 33.189 28.1899 33.1405 29.2449H33.1405Z" fill="#AAB0B7"/>
<path d="M30.3387 18.6665H30.3382C30.0201 18.6666 29.7149 18.793 29.49 19.018C29.265 19.2431 29.1386 19.5482 29.1387 19.8664C29.1387 20.1846 29.2651 20.4897 29.4901 20.7147C29.7151 20.9397 30.0203 21.0661 30.3385 21.0661C30.6566 21.0661 30.9618 20.9397 31.1868 20.7147C31.4118 20.4897 31.5382 20.1846 31.5383 19.8664C31.5383 19.5482 31.4119 19.2431 31.187 19.018C30.962 18.793 30.6569 18.6666 30.3387 18.6665Z" fill="#AAB0B7"/>
</svg>
