<svg width="50" height="50" viewBox="0 0 50 50" fill="none" xmlns="http://www.w3.org/2000/svg">
<rect y="0.000488281" width="50" height="50" rx="10" fill="#F5F6FA"/>
<path d="M18.0038 20.0009H17.9756C17.669 20.0194 17.3619 19.9745 17.0734 19.8689C16.7849 19.7634 16.5213 19.5995 16.299 19.3875C16.0767 19.1756 15.9004 18.92 15.7813 18.6369C15.6622 18.3537 15.6027 18.0491 15.6066 17.7419C15.6105 17.4348 15.6777 17.1317 15.804 16.8517C15.9302 16.5717 16.1129 16.3207 16.3405 16.1144C16.5681 15.9081 16.8358 15.751 17.1269 15.6528C17.418 15.5547 17.7262 15.5176 18.0322 15.5438C18.3398 15.5216 18.6486 15.5632 18.9393 15.666C19.2301 15.7689 19.4963 15.9308 19.7215 16.1415C19.9466 16.3523 20.1257 16.6073 20.2475 16.8906C20.3692 17.1739 20.4311 17.4794 20.4291 17.7877C20.4272 18.0961 20.3614 18.4007 20.236 18.6825C20.1106 18.9642 19.9283 19.2169 19.7005 19.4248C19.4727 19.6327 19.2044 19.7911 18.9124 19.8903C18.6204 19.9894 18.311 20.0271 18.0038 20.0009Z" fill="#AAB0B7"/>
<path d="M20.0186 23.0005H16.0186V35.0005H20.0186V23.0005Z" fill="#AAB0B7"/>
<path d="M30.5176 23.0005C29.8435 23.0023 29.1786 23.1565 28.5725 23.4515C27.9665 23.7464 27.4349 24.1746 27.0176 24.7039V23.0005H23.0176V35.0005H27.0176V29.5005C27.0176 28.9701 27.2283 28.4613 27.6034 28.0863C27.9784 27.7112 28.4871 27.5005 29.0176 27.5005C29.548 27.5005 30.0567 27.7112 30.4318 28.0863C30.8069 28.4613 31.0176 28.9701 31.0176 29.5005V35.0005H35.0176V27.5005C35.0176 26.9095 34.9012 26.3244 34.675 25.7784C34.4489 25.2324 34.1174 24.7364 33.6996 24.3185C33.2817 23.9006 32.7856 23.5692 32.2397 23.343C31.6937 23.1169 31.1085 23.0005 30.5176 23.0005Z" fill="#AAB0B7"/>
</svg>
