<svg width="157" height="40" viewBox="0 0 157 40" fill="none" xmlns="http://www.w3.org/2000/svg">
<path d="M63.5583 17.0971L59.7769 16.3864C57.2797 15.8889 56.709 15.6046 56.709 14.2543C56.709 12.9039 57.5651 12.3354 60.3477 12.3354C63.487 12.3354 64.4145 13.0461 64.4145 15.3204V15.6757L69.1235 14.3964C68.7667 10.7007 66.1269 8 60.4904 8C54.3545 8 52 11.1982 52 14.4675C52 17.8078 53.7123 19.7978 57.7792 20.5086L61.5606 21.1482C64.5572 21.6457 64.9139 22.1432 64.9139 23.5646C64.9139 24.9861 64.2718 25.5546 61.4893 25.5546C57.6365 25.5546 56.7803 24.915 56.7803 22.5696V22.2143L52.0713 23.4936C52.4281 27.6868 55.3533 29.89 61.2039 29.89C67.2684 29.89 69.5516 26.8339 69.5516 23.4225C69.6229 20.3664 68.0532 18.0211 63.5583 17.0971Z" fill="black"/>
<path d="M87.2108 20.7103V20.355C87.2108 16.446 84.0715 13.8164 79.7906 13.8164C74.4395 13.8164 71.3716 17.0857 71.3716 22.2028C71.3716 27.2489 74.2255 30.4471 79.5052 30.4471C83.9288 30.4471 87.1394 27.8175 87.1394 23.9085V23.5532H82.3591V23.7664C82.3591 25.5432 81.3603 26.1828 79.3625 26.1828C77.0794 26.1828 76.0805 25.1168 76.0805 22.1318C76.0805 19.1468 77.0794 18.0807 79.3625 18.0807C81.3603 18.0807 82.3591 18.6493 82.3591 20.4971V20.7814H87.2108V20.7103Z" fill="black"/>
<path d="M96.8419 13.7454C92.347 13.7454 89.3504 16.2329 89.3504 20.0707V20.4261L93.9166 20.0707C93.9166 18.4361 94.7015 17.9386 96.6279 17.9386C98.4829 17.9386 99.5531 18.2939 99.5531 20.1418V20.6393L94.0593 21.4921C90.7773 21.9896 88.9937 23.5532 88.9937 25.9696C88.9937 28.8836 91.2054 30.3761 94.0593 30.3761C97.056 30.3761 98.6256 29.0968 99.5531 27.8886H99.7672V30.0207H104.191V20.5682C104.048 16.375 101.551 13.7454 96.8419 13.7454ZM95.5576 26.7514C94.1307 26.7514 93.4886 26.4671 93.4886 25.6143C93.4886 24.9746 93.9166 24.6193 94.9155 24.4771L99.4818 23.7664C99.4818 26.2539 97.484 26.7514 95.5576 26.7514Z" fill="black"/>
<path d="M106.902 10.0495V30.0917H111.683V8.77026L106.902 10.0495Z" fill="black"/>
<path d="M114.679 10.0495V30.0917H119.459V8.77026L114.679 10.0495Z" fill="black"/>
<path fill-rule="evenodd" clip-rule="evenodd" d="M129.876 13.7454C124.739 13.7454 121.671 17.0146 121.671 22.0607C121.671 27.1068 124.739 30.3761 129.876 30.3761C135.013 30.3761 138.01 27.1068 138.01 22.0607C138.01 17.0146 135.013 13.7454 129.876 13.7454ZM130.022 26.4807C127.585 26.4807 125.602 24.498 125.602 22.0608C125.602 19.6235 127.585 17.6408 130.022 17.6408C130.392 17.6408 130.761 17.6862 131.124 17.7771C131.198 17.7998 131.266 17.851 131.301 17.9191L131.371 18.0574C131.898 19.0845 132.801 19.8692 133.891 20.2484C134.005 20.2882 134.079 20.3905 134.079 20.5098V23.606C134.079 23.7253 134.005 23.8276 133.891 23.8674C132.801 24.2467 131.897 25.0303 131.367 26.0563L131.295 26.1967C131.261 26.2705 131.193 26.3217 131.119 26.3387C130.755 26.4353 130.386 26.4807 130.022 26.4807Z" fill="black"/>
<path d="M149.568 13.7454C147.142 13.7454 145.287 14.6693 144.431 16.4461H144.288V14.1007H139.865V35.4221L144.645 34.1428V27.9596H144.788C145.501 29.31 147.071 30.3761 149.639 30.3761C153.992 30.3761 156.417 27.1068 156.417 22.0607C156.489 17.0146 154.063 13.7454 149.568 13.7454ZM148.141 26.325C145.858 26.325 144.645 25.5432 144.645 23.34V20.7814C144.645 18.6493 145.929 17.7964 148.141 17.7964C150.924 17.7964 151.637 19.1468 151.637 22.0607C151.637 24.9746 150.924 26.325 148.141 26.325Z" fill="black"/>
<path d="M28.1612 2.38531C24.9851 5.65771 21.8089 8.91808 18.6328 12.1905C18.5967 12.2145 18.5726 12.2386 18.5365 12.2747L11.6188 19.1924C10.9571 19.8541 10.9571 20.9489 11.6188 21.6106L18.1756 28.1675L10.1029 36.6252C8.85169 35.771 7.66063 34.7845 6.48161 33.5934C-1.9761 25.1477 -2.26484 14.7049 6.25302 6.17504C13.0023 -0.574283 20.9668 -1.71722 28.1612 2.38531Z" fill="url(#paint0_linear_5071_700)"/>
<path d="M33.84 33.7499C27.1027 40.4751 19.1864 41.6782 12.04 37.8163L14.8793 34.8447C17.0569 32.5949 19.2225 30.3572 21.4001 28.1074L23.5897 25.9178L27.8847 21.6228C28.5464 20.9611 28.5464 19.8663 27.8847 19.2046L25.9116 17.2315L21.376 12.6959L29.3645 4.3344L30.0623 3.61255C31.2413 4.44268 32.4203 5.44124 33.5392 6.56011C41.9247 14.9216 42.2857 25.2922 33.84 33.7499Z" fill="url(#paint1_linear_5071_700)"/>
<defs>
<linearGradient id="paint0_linear_5071_700" x1="23.1101" y1="-13.446" x2="-30.6895" y2="104.101" gradientUnits="userSpaceOnUse">
<stop stop-color="#00DECA"/>
<stop offset="0.37798" stop-color="#3A8AFA"/>
<stop offset="1" stop-color="#1A6AF4"/>
</linearGradient>
<linearGradient id="paint1_linear_5071_700" x1="34.988" y1="-9.74623" x2="-18.4809" y2="107.016" gradientUnits="userSpaceOnUse">
<stop stop-color="#00DECA"/>
<stop offset="0.37798" stop-color="#3A8AFA"/>
<stop offset="1" stop-color="#1A6AF4"/>
</linearGradient>
</defs>
</svg>
