<svg width="75" height="48" viewBox="0 0 75 48" fill="none" xmlns="http://www.w3.org/2000/svg">
<path d="M59.6114 20.8718C59.6124 24.9596 58.401 28.9559 56.1306 32.3553C53.8602 35.7547 50.6327 38.4044 46.8563 39.9694C43.0799 41.5344 38.9242 41.9444 34.9148 41.1475C30.9054 40.3506 27.2223 38.3825 24.3314 35.4923C21.4405 32.6021 19.4717 28.9195 18.6738 24.9103C17.876 20.9011 18.285 16.7453 19.8491 12.9685C21.4133 9.19171 24.0623 5.9636 27.4611 3.69242C30.86 1.42123 34.856 0.208984 38.9439 0.208984C44.4244 0.208984 49.6806 2.3858 53.5564 6.26068C57.4321 10.1356 59.6102 15.3912 59.6114 20.8718Z" fill="#C4C4C4"/>
<path d="M59.4695 17.0545L59.3842 16.6234C58.9271 14.4178 58.1143 12.3011 56.9778 10.3564L56.9446 10.2901C55.7671 8.30188 54.2671 6.52335 52.5061 5.02725L52.2787 4.83303C52.243 4.79596 52.205 4.76116 52.165 4.72882C51.3306 4.04438 50.4436 3.42667 49.5123 2.88139C48.9865 2.57349 48.4465 2.28928 47.8922 2.03348C47.4896 1.844 47.0822 1.66398 46.6701 1.50292L46.4901 1.41766C44.8651 0.785408 43.1669 0.360475 41.4357 0.152889H41.3267H41.1799H41.0188C40.1422 0.0665896 39.2609 0.0349427 38.3803 0.0581437C37.6371 0.0782864 36.8955 0.138377 36.1587 0.238152H36.0876H36.0639L35.5002 0.328156L35.1544 0.389739L34.8134 0.45605L34.2544 0.579216H34.226H34.1597C33.4363 0.749049 32.7231 0.959381 32.0233 1.20923C31.1956 1.50438 30.3872 1.85085 29.6027 2.24663L29.5079 2.29401L29.3374 2.38401L29.2237 2.44085C27.6832 3.25682 26.2509 4.26258 24.9604 5.43464C24.9079 5.48154 24.8588 5.53221 24.8136 5.58623C24.4978 5.90203 24.182 6.21783 23.8662 6.53363C23.4446 6.97417 23.0372 7.43365 22.6582 7.90735C21.9895 8.74901 21.3862 9.64059 20.8534 10.5743C20.8274 10.6197 20.8053 10.6673 20.7871 10.7164C19.6114 12.8168 18.8099 15.1057 18.4186 17.4808C18.4163 17.5044 18.4163 17.5282 18.4186 17.5519C17.643 22.3554 18.5678 27.2791 21.0334 31.4739C21.0459 31.4986 21.0601 31.5224 21.0761 31.545C22.3226 33.6347 23.9259 35.4897 25.8131 37.0257L25.9268 37.1109L26.012 37.1773C26.3389 37.4331 26.6705 37.6841 27.0115 37.9257C27.4852 38.2526 27.9353 38.5605 28.4326 38.8447C29.4129 39.426 30.4396 39.9251 31.5022 40.3368L31.6964 40.3984C33.2458 40.9847 34.8601 41.3823 36.5045 41.5827H36.6087L36.8645 41.6111H36.964C38.5868 41.7701 40.2225 41.7399 41.8383 41.5211H41.8762L42.8236 41.3648C43.1458 41.3032 43.4631 41.2369 43.771 41.1611H43.8042C45.3916 40.7882 46.9292 40.2285 48.3849 39.4937L48.527 39.4226L48.7023 39.3326L48.7828 39.2852C50.2509 38.5065 51.6189 37.5521 52.8566 36.443L53.0224 36.3056C53.8596 35.5398 54.6342 34.7081 55.3388 33.8187C55.6846 33.3782 56.0114 32.9282 56.3146 32.4592C56.5657 32.0802 56.7883 31.6966 57.0394 31.2987L57.1199 31.1755C58.324 29.0645 59.1496 26.7591 59.5595 24.3637C59.5595 24.3353 59.5595 24.3068 59.5831 24.2784C59.9831 21.8849 59.959 19.4397 59.5121 17.0545H59.4695ZM50.7155 3.73879L50.7676 3.77195C51.2697 4.12249 51.7624 4.49198 52.2313 4.88515C52.3157 4.96729 52.3735 5.07291 52.3971 5.18831C50.7979 3.88628 49.0148 2.82796 47.1059 2.04769C47.1082 2.01615 47.1082 1.98448 47.1059 1.95294C47.0849 1.85892 47.0391 1.77224 46.9733 1.70188C47.2717 1.82504 47.5748 1.95295 47.8685 2.09032C48.6511 2.4701 49.409 2.89885 50.1376 3.37404C50.3413 3.48773 50.5307 3.61089 50.7155 3.73879ZM47.0301 1.95294C47.0324 1.97182 47.0324 1.99091 47.0301 2.00978C45.5293 1.40401 43.9636 0.973266 42.3641 0.726062C42.3712 0.693277 42.3712 0.659374 42.3641 0.626589C42.3546 0.57663 42.3335 0.529588 42.3026 0.489212C43.7064 0.663942 45.0858 0.997677 46.4143 1.48398L46.7506 1.61188C46.8189 1.64536 46.8792 1.69315 46.9275 1.752C46.9757 1.81085 47.0107 1.87938 47.0301 1.95294ZM58.9863 18.2482C59.3988 20.4574 59.434 22.7206 59.0905 24.9416C58.3637 25.6279 57.5219 26.1811 56.6036 26.5759C56.8057 24.4567 56.7068 22.3197 56.3099 20.2283C56.3099 20.1146 56.2672 20.0009 56.2436 19.892C57.2393 19.4611 58.159 18.8725 58.9673 18.1487C58.9721 18.1961 58.9815 18.2293 58.9863 18.2624V18.2482ZM19.3471 25.5479C20.3622 25.9308 21.4321 26.1483 22.5161 26.1922L22.573 26.5332C22.9452 28.6242 23.6135 30.6515 24.5578 32.554C23.5593 32.5164 22.575 32.3048 21.6493 31.9287C20.5303 29.9776 19.7518 27.8503 19.3471 25.6379C19.3452 25.608 19.3452 25.5779 19.3471 25.5479ZM24.6525 6.12624C24.6439 6.0506 24.6513 5.974 24.6742 5.90139C24.697 5.82877 24.7348 5.76176 24.7852 5.70465L25.0504 5.4678C26.1169 4.53747 27.2849 3.73024 28.5321 3.0614C28.5203 3.10963 28.5203 3.16001 28.5321 3.20824C28.5385 3.24198 28.5514 3.27416 28.57 3.30299C27.1653 4.10779 25.8587 5.07269 24.6762 6.17835C24.6599 6.16828 24.6455 6.15545 24.6336 6.14045L24.6525 6.12624ZM32.6107 1.44608C32.6263 1.46545 32.6456 1.48155 32.6675 1.49345C31.2468 1.94402 29.8781 2.54425 28.5842 3.28404C28.5699 3.26087 28.5602 3.23512 28.5558 3.20824C28.5481 3.14358 28.5631 3.07824 28.5984 3.02351C29.873 2.35 31.2187 1.82091 32.6107 1.44608ZM32.7291 1.22818C33.2999 1.10883 33.8772 1.02341 34.4581 0.972381C33.8423 1.07659 33.2407 1.20924 32.6438 1.36556C32.6533 1.32766 32.6817 1.28029 32.7433 1.22818H32.7291ZM33.2028 0.967654C33.6616 0.8945 34.1263 0.864367 34.5907 0.87765H34.6713C34.0656 0.924289 33.4631 1.00494 32.8665 1.11923C32.9849 1.0615 33.1067 1.01089 33.2312 0.967654H33.2028ZM37.4898 0.266573C36.8907 0.368314 36.2989 0.509139 35.7181 0.688158L35.7939 0.65501C36.2217 0.474066 36.6659 0.334476 37.1203 0.238152C37.2535 0.23494 37.3868 0.244456 37.5182 0.266573H37.4898ZM37.7977 0.40395C37.1819 0.470268 36.5708 0.564996 35.9597 0.688158C36.5215 0.526041 37.0926 0.397912 37.6698 0.304462C37.7708 0.332884 37.8214 0.366054 37.8214 0.40395H37.7977ZM42.1699 0.493954C42.2223 0.531906 42.2592 0.587366 42.2741 0.650268C42.2788 0.676906 42.2788 0.704166 42.2741 0.730804C40.8008 0.509755 39.3085 0.44307 37.8214 0.531844C37.8367 0.511424 37.8495 0.489134 37.8593 0.465519C39.3021 0.31168 40.7577 0.321228 42.1984 0.493954H42.1699ZM56.2151 20.2567C56.6153 22.3542 56.7127 24.4981 56.5041 26.6232C55.0577 27.2954 53.5705 27.876 52.0513 28.3617C52.08 26.149 51.8687 23.9397 51.4213 21.7725C53.037 21.2591 54.6191 20.6452 56.1583 19.9346C56.2009 20.0435 56.2246 20.1478 56.2436 20.2567H56.2151ZM41.881 36.533C40.7062 36.7509 39.5551 36.9404 38.4372 37.1015C37.7811 35.4095 37.2243 33.6808 36.7698 31.9239C38.1056 31.7297 39.4841 31.5071 40.8909 31.2418C42.2978 30.9765 43.6668 30.6971 44.9837 30.3939C45.1939 32.1973 45.2967 34.0116 45.2916 35.8272C44.1926 36.0593 43.0321 36.2962 41.881 36.533ZM45.2916 35.8983C45.2964 37.0217 45.1837 38.1426 44.9553 39.2426C44.1547 39.4273 43.3258 39.6026 42.4778 39.7589C41.6299 39.9152 40.7962 40.0526 39.9814 40.171C39.3735 39.2251 38.8655 38.2187 38.4656 37.1678C39.5741 37.0115 40.7204 36.822 41.8904 36.6041C43.0605 36.3862 44.1974 36.1304 45.2916 35.8793V35.8983ZM22.554 26.2158C24.2434 26.3236 25.938 26.3236 27.6274 26.2158C27.9898 28.3991 28.587 30.5368 29.4085 32.5918C27.8184 32.693 26.2236 32.693 24.6336 32.5918C23.6721 30.6848 22.9909 28.649 22.6109 26.5474C22.6014 26.4101 22.5872 26.3058 22.5682 26.1969L22.554 26.2158ZM44.96 30.3276C43.6431 30.626 42.2741 30.9102 40.8673 31.1755C39.4604 31.4408 38.0772 31.6492 36.7366 31.8576C36.2203 29.906 35.7418 27.7412 35.3155 25.4437C36.7366 25.24 38.1577 24.9984 39.6498 24.7237C41.142 24.4489 42.5678 24.1505 43.951 23.8331C44.4247 26.1116 44.7563 28.3001 44.9742 30.3086L44.96 30.3276ZM39.6498 24.6432C38.1719 24.9179 36.7224 25.1548 35.3155 25.3585C35.1023 24.1553 34.9034 22.9189 34.7281 21.6541C34.5765 20.5599 34.4439 19.4798 34.3302 18.4235C35.6376 18.234 36.9877 18.0114 38.3661 17.7508C39.7446 17.4903 41.0899 17.2156 42.3784 16.9219C42.6531 17.9498 42.9184 19.0061 43.1694 20.0814C43.4584 21.3225 43.7237 22.5494 43.9558 23.7526C42.5868 24.0605 41.1373 24.3589 39.6641 24.6384L39.6498 24.6432ZM37.1203 11.0432C36.0071 11.2517 34.9176 11.4317 33.866 11.5833C33.8186 9.73582 33.866 8.03999 33.956 6.55731C34.6855 6.44835 35.4387 6.32046 36.2108 6.17835C36.9829 6.03624 37.7361 5.87992 38.4561 5.70465C39.0861 7.04996 39.7256 8.6179 40.3509 10.3659C39.323 10.6074 38.243 10.8301 37.1345 11.0385L37.1203 11.0432ZM40.3746 10.4417C41.0662 12.3886 41.7389 14.5486 42.3594 16.8603C41.0709 17.1492 39.7351 17.4287 38.3567 17.6845C36.9782 17.9403 35.6281 18.1582 34.3207 18.3572C34.0697 15.9887 33.9181 13.7197 33.847 11.6543C34.9034 11.498 35.9976 11.318 37.1108 11.1096C38.224 10.9011 39.342 10.6738 40.3888 10.4369L40.3746 10.4417ZM36.2013 6.11203C35.4339 6.25414 34.6855 6.3773 33.9607 6.48625C34.0285 5.47526 34.1566 4.46922 34.3444 3.47352C34.7707 3.4072 35.216 3.33614 35.666 3.25088C36.1161 3.16561 36.5566 3.07562 36.9829 2.98088C37.5103 3.84185 37.9848 4.73404 38.404 5.65254C37.7219 5.80886 36.9782 5.96518 36.2155 6.10729L36.2013 6.11203ZM35.6566 3.17982C35.216 3.26509 34.7802 3.33614 34.3586 3.39772C34.4803 2.73896 34.6741 2.09559 34.9365 1.47924L35.325 1.41292L35.7087 1.33714C36.1769 1.81701 36.59 2.34768 36.9403 2.91929C36.5376 3.00456 36.1066 3.09455 35.6708 3.17508L35.6566 3.17982ZM35.1355 0.981864C35.0502 1.12034 34.9742 1.26433 34.9081 1.41292C34.695 1.44608 34.4913 1.47451 34.3018 1.49345C34.586 1.30397 34.8655 1.13344 35.1497 0.977123L35.1355 0.981864ZM34.1644 1.50766L33.7333 1.54083C34.0934 1.37029 34.4628 1.21239 34.8418 1.06713C34.6135 1.20111 34.3922 1.34655 34.1786 1.50292L34.1644 1.50766ZM35.235 0.934491C35.3821 1.03782 35.5214 1.15181 35.6518 1.27556L35.3108 1.34661L34.9697 1.40345C35.0526 1.2397 35.1459 1.08147 35.2492 0.92975L35.235 0.934491ZM35.3439 0.934491C35.666 0.977124 35.9881 1.03397 36.2913 1.10976C36.1082 1.16029 35.9092 1.20765 35.6945 1.25186C35.589 1.14073 35.4766 1.03631 35.3581 0.939218L35.3439 0.934491ZM35.6518 0.910798C36.0545 0.910798 36.4571 0.910806 36.855 0.948702C36.7271 0.991335 36.5897 1.03397 36.4429 1.07187C36.1918 1.00555 35.9266 0.958172 35.666 0.915539L35.6518 0.910798ZM34.5576 1.09555C34.2165 1.23292 33.8849 1.37503 33.5581 1.53608H33.1933C33.6576 1.37503 34.1076 1.23293 34.5718 1.10029L34.5576 1.09555ZM33.0323 1.51713H32.8902C33.266 1.40344 33.6449 1.29924 34.027 1.2045C33.7049 1.28977 33.3733 1.40345 33.0465 1.52187L33.0323 1.51713ZM33.4112 1.60714C32.2623 2.1782 31.1818 2.87742 30.1901 3.69143C29.8103 3.68416 29.4324 3.63651 29.0627 3.54931C30.3139 2.75599 31.6462 2.09857 33.037 1.5882C33.1658 1.60452 33.2956 1.61243 33.4254 1.61188L33.4112 1.60714ZM33.5675 1.60714L34.0412 1.57872C33.2408 2.17828 32.5198 2.87705 31.8954 3.65827C31.2985 3.69616 30.7538 3.71037 30.2848 3.69615C31.2992 2.87579 32.4056 2.17633 33.5818 1.61188L33.5675 1.60714ZM34.1834 1.56451C34.406 1.56451 34.6571 1.51714 34.875 1.47924C34.6156 2.09632 34.4235 2.73951 34.3018 3.39772C33.4823 3.52088 32.7054 3.60142 31.9996 3.65352C32.6367 2.86445 33.3758 2.16355 34.1976 1.56925L34.1834 1.56451ZM35.775 1.31345L36.4476 1.14765C37.4249 1.40713 38.3632 1.79584 39.2377 2.30348C38.5603 2.5119 37.8166 2.7156 36.9971 2.8956C36.6504 2.32923 36.2456 1.80057 35.7892 1.31819L35.775 1.31345ZM36.5755 1.10976C36.7413 1.06239 36.8929 1.01028 37.0492 0.95817C38.3376 1.07138 39.6089 1.33041 40.8388 1.7303C40.3414 1.93729 39.8339 2.1191 39.3183 2.27506C38.4621 1.77318 37.5451 1.38315 36.5897 1.1145L36.5755 1.10976ZM37.1819 0.90607C37.2999 0.860246 37.4153 0.808054 37.5277 0.749741C39.0079 0.725947 40.4864 0.860937 41.9378 1.15239C41.6237 1.36568 41.2889 1.54661 40.9383 1.69241C39.725 1.28935 38.4693 1.02708 37.1961 0.910798L37.1819 0.90607ZM37.0208 0.90607C36.6608 0.872911 36.2961 0.858693 35.9313 0.853956C36.405 0.811323 36.8787 0.782904 37.3524 0.768693C37.2719 0.801852 37.1629 0.849217 37.035 0.896587L37.0208 0.90607ZM36.4571 0.745014C36.8455 0.692907 37.2387 0.655011 37.6272 0.626589L37.504 0.697641C37.1724 0.692904 36.8219 0.711846 36.4713 0.735531L36.4571 0.745014ZM32.767 1.54557L32.8949 1.57872C31.5243 2.09424 30.2114 2.75152 28.9774 3.53984C28.8464 3.50474 28.7261 3.43805 28.6269 3.34562C29.9429 2.59552 31.3356 1.98886 32.7812 1.53608L32.767 1.54557ZM28.9063 3.58247C27.5497 4.45733 26.296 5.48226 25.1689 6.63784C24.9645 6.57506 24.7864 6.4469 24.662 6.27308C25.8467 5.15981 27.1584 4.18994 28.57 3.38351C28.6703 3.47347 28.7904 3.53841 28.9205 3.573L28.9063 3.58247ZM28.9916 3.61089C29.3548 3.7102 29.7285 3.76586 30.1048 3.77669C28.9729 4.72128 27.9498 5.78894 27.0542 6.95995C26.4388 6.94558 25.8284 6.84677 25.2399 6.66626C26.3749 5.50516 27.6384 4.47694 29.0058 3.60142L28.9916 3.61089ZM30.209 3.78142C30.7539 3.79921 31.2993 3.78972 31.8433 3.753C31.0709 4.73729 30.4085 5.80315 29.8679 6.93153C28.9598 6.99335 28.0489 7.00441 27.1394 6.96468C28.0502 5.78699 29.091 4.71596 30.2422 3.77195L30.209 3.78142ZM31.9333 3.74827C32.6486 3.69616 33.4397 3.6109 34.3018 3.483C34.1146 4.48039 33.9865 5.48797 33.9181 6.50046C32.497 6.70889 31.1517 6.851 29.958 6.92679C30.5017 5.79408 31.1689 4.72492 31.9475 3.73879L31.9333 3.74827ZM33.8991 6.59047C33.7902 8.07315 33.757 9.76899 33.7997 11.6164C31.7296 11.9196 29.7969 12.1233 28.0821 12.2228C28.5013 10.4255 29.1128 8.6785 29.9059 7.01205C31.1185 6.91731 32.4638 6.77521 33.9133 6.56205L33.8991 6.59047ZM33.8044 11.6875C33.8518 13.7528 34.0034 16.0124 34.2544 18.3903C31.6917 18.7598 29.2995 19.0061 27.1915 19.1246C27.2499 16.8206 27.5436 14.5286 28.0679 12.2843C29.8016 12.1564 31.7438 11.9622 33.8186 11.659L33.8044 11.6875ZM34.2781 18.4566C34.3918 19.513 34.5244 20.593 34.676 21.6873C34.856 22.9521 35.0502 24.1884 35.2681 25.3963C32.5207 25.7895 29.9579 26.0501 27.6889 26.1732C27.6652 26.0169 27.6368 25.8653 27.6084 25.6995C27.2759 23.5419 27.1364 21.359 27.1915 19.1767C29.3185 19.044 31.7106 18.7977 34.2734 18.4282L34.2781 18.4566ZM43.2547 20.0909C43.0052 19.0109 42.7415 17.9577 42.4636 16.9313C44.9884 16.3534 47.3096 15.7187 49.3228 15.0649C50.161 17.0803 50.8173 19.1666 51.2839 21.2988C51.3171 21.4552 51.3455 21.6067 51.3787 21.7725C49.2328 22.4689 46.7459 23.151 44.041 23.7716C43.8042 22.5305 43.5437 21.3036 43.25 20.0625L43.2547 20.0909ZM42.4447 16.865C41.8241 14.5581 41.1515 12.398 40.4551 10.4511C42.4968 9.97742 44.3821 9.47056 46.0211 8.94476C47.3188 10.8481 48.4173 12.8799 49.2991 15.0081C47.2954 15.6287 44.9648 16.2634 42.4399 16.8366L42.4447 16.865ZM40.4315 10.3848C39.8062 8.64632 39.1667 7.0689 38.5367 5.72833C39.9578 5.40622 41.2699 5.05568 42.4115 4.69567C43.7522 5.96099 44.9513 7.36824 45.9879 8.89264C44.3442 9.38529 42.4636 9.89688 40.4267 10.3564L40.4315 10.3848ZM38.4988 5.6478C38.0728 4.72675 37.5902 3.83292 37.054 2.97139C37.8924 2.78665 38.6646 2.58297 39.3467 2.3698C40.4257 3.00761 41.4312 3.76217 42.3452 4.61988C41.2036 4.97041 39.9009 5.31621 38.494 5.63833L38.4988 5.6478ZM39.4462 2.3319C39.9675 2.17163 40.4798 1.98346 40.981 1.76819C42.3837 2.23889 43.7295 2.86491 44.9932 3.63457C44.1587 3.99732 43.3047 4.31361 42.4352 4.58197C41.5171 3.72504 40.5085 2.97058 39.4272 2.3319H39.4462ZM41.0757 1.7303C41.4228 1.58396 41.7518 1.39797 42.0562 1.17607C43.6428 1.49895 45.1875 2.00114 46.6606 2.67296C46.1743 3.05777 45.6391 3.37634 45.069 3.62036C43.8064 2.84242 42.4606 2.20845 41.0567 1.7303H41.0757ZM42.1226 1.11923C42.2292 1.03698 42.3139 0.929558 42.3689 0.806583C43.9753 1.05475 45.5475 1.48873 47.0538 2.09979C46.9994 2.30709 46.8798 2.49143 46.7127 2.6256C45.2327 1.94805 43.6799 1.44261 42.0847 1.11923H42.1226ZM42.042 1.11923C40.608 0.827673 39.1473 0.687948 37.684 0.702369C37.7218 0.679352 37.7582 0.654053 37.7929 0.626589C39.2986 0.527508 40.8105 0.591032 42.3026 0.816066C42.2345 0.932607 42.1385 1.03031 42.0231 1.10029L42.042 1.11923ZM24.6478 6.32992C24.7763 6.50072 24.9527 6.62936 25.1546 6.69941C23.6988 8.20094 22.4628 9.90103 21.4835 11.7491C21.3439 11.7031 21.2147 11.6301 21.1033 11.5342C20.992 11.4383 20.9006 11.3213 20.8345 11.1901C21.8486 9.38344 23.1276 7.73884 24.6288 6.31099L24.6478 6.32992ZM25.2257 6.72783C25.8133 6.91374 26.4239 7.01737 27.04 7.03575C25.8299 8.6368 24.8331 10.3884 24.0746 12.2464C23.2141 12.215 22.3631 12.0554 21.5498 11.7727C22.5189 9.91202 23.7505 8.20025 25.2067 6.68994L25.2257 6.72783ZM27.1205 7.04047C28.0344 7.0862 28.9502 7.0783 29.8632 7.0168C29.0725 8.68372 28.4626 10.4306 28.0442 12.2275C26.7477 12.308 25.4478 12.3159 24.1504 12.2512C24.9021 10.3868 25.8942 8.62873 27.1015 7.02154L27.1205 7.04047ZM28.03 12.2796C27.5057 14.5239 27.2121 16.8158 27.1537 19.1198C25.565 19.2146 23.9721 19.2146 22.3835 19.1198C22.6425 16.7711 23.2293 14.4702 24.1267 12.2843C25.4209 12.3512 26.7178 12.3433 28.0111 12.2607L28.03 12.2796ZM27.1537 19.1767C27.096 21.3622 27.2355 23.5485 27.5705 25.709C27.5942 25.8606 27.6226 26.0122 27.6463 26.1827C25.9584 26.2881 24.2656 26.2881 22.5777 26.1827C22.1882 23.8773 22.1212 21.5289 22.3788 19.2051C23.9636 19.286 25.5518 19.2702 27.1347 19.1577L27.1537 19.1767ZM27.7268 26.2253C29.9864 26.1069 32.5491 25.8464 35.306 25.4532C35.7181 27.7506 36.1966 29.9154 36.7271 31.8671C34.1218 32.2413 31.6822 32.4876 29.5411 32.5966C28.6999 30.5394 28.0852 28.3967 27.7079 26.2064L27.7268 26.2253ZM36.7271 31.9334C37.1817 33.6902 37.7384 35.419 38.3945 37.1109C36.2392 37.4188 34.2118 37.6178 32.4307 37.7031C32.3454 37.5989 32.2601 37.4899 32.1796 37.381C31.1013 35.922 30.2161 34.3298 29.5458 32.644C31.6633 32.5303 34.1028 32.2697 36.7034 31.9145L36.7271 31.9334ZM45.05 30.3749C47.6127 29.7875 49.9718 29.1386 52.0087 28.4801C51.9906 30.2879 51.7374 32.0857 51.2555 33.8282C51.2176 33.9656 51.175 34.0935 51.1323 34.2261C49.4412 34.7851 47.4801 35.3298 45.3579 35.8177C45.3637 33.999 45.2609 32.1815 45.05 30.3749ZM45.05 30.3086C44.8321 28.3001 44.5005 26.1069 44.0553 23.8142C46.7601 23.1936 49.266 22.5115 51.3929 21.8104C51.8425 23.9726 52.0569 26.1771 52.0324 28.3854C49.9718 29.0533 47.6127 29.7023 45.0405 30.2944L45.05 30.3086ZM51.4497 21.7252C51.4165 21.5736 51.3881 21.422 51.355 21.2515C50.8899 19.1157 50.2335 17.0262 49.3939 15.0081C50.9135 14.5286 52.4021 13.9559 53.8514 13.2933C54.9286 15.3695 55.7114 17.5856 56.1772 19.8777C54.6376 20.586 53.0556 21.1983 51.4402 21.711L51.4497 21.7252ZM49.3702 14.9749C48.4853 12.8467 47.3871 10.8136 46.0922 8.90685C47.3344 8.51495 48.5524 8.04991 49.7397 7.51417C51.3625 9.23107 52.737 11.1668 53.8229 13.2649C52.3707 13.9188 50.8806 14.4851 49.3607 14.9607L49.3702 14.9749ZM46.0543 8.85475C45.0182 7.33267 43.8224 5.92568 42.4873 4.65776C43.36 4.38984 44.2172 4.07355 45.0548 3.71037C46.7606 4.766 48.3212 6.03998 49.697 7.49996C48.5071 8.01831 47.2875 8.46596 46.0448 8.84054L46.0543 8.85475ZM45.1306 3.64405C45.6983 3.40398 46.2293 3.08504 46.708 2.69666C48.6095 3.57266 50.3767 4.71466 51.9566 6.08835C51.2961 6.64039 50.5569 7.09063 49.7633 7.42417C48.3858 5.97014 46.8253 4.70107 45.1211 3.64878L45.1306 3.64405ZM46.7648 2.64928C46.9294 2.51089 47.0483 2.32595 47.1059 2.11874C49.0184 2.90179 50.8046 3.9633 52.4066 5.26884C52.3725 5.5642 52.2267 5.83535 51.9992 6.02676C50.4202 4.65926 48.6546 3.52361 46.7553 2.65402L46.7648 2.64928ZM37.7645 0.536585C37.3619 0.56027 36.9592 0.602899 36.5519 0.650268C36.9734 0.579214 37.395 0.51763 37.8214 0.47026C37.8005 0.493845 37.7766 0.514555 37.7503 0.531844L37.7645 0.536585ZM35.8081 0.588685C35.6566 0.650266 35.505 0.721322 35.3344 0.797114C35.4946 0.568655 35.7212 0.39501 35.9834 0.299735C36.3008 0.261839 36.585 0.242884 36.8313 0.23341C36.4771 0.327453 36.1303 0.447795 35.7939 0.593427L35.8081 0.588685ZM33.5297 0.853956C33.7618 0.773427 34.0365 0.688171 34.3444 0.612379C34.6237 0.604968 34.8985 0.684403 35.1308 0.839746C34.965 0.839746 34.7992 0.81132 34.6334 0.806583C34.2599 0.794533 33.8861 0.811963 33.5154 0.858698L33.5297 0.853956ZM33.9607 1.13344C33.5675 1.23291 33.1791 1.34187 32.7907 1.46029L32.7149 1.4224C33.1128 1.31819 33.5297 1.22344 33.9465 1.13818L33.9607 1.13344ZM20.7682 11.2469C20.9233 11.4953 21.1591 11.6826 21.4361 11.7775C20.3283 13.8749 19.5699 16.1389 19.1908 18.4803C19.0254 18.4224 18.8745 18.3293 18.7486 18.2074C18.6227 18.0856 18.5246 17.9379 18.4613 17.7745C18.8463 15.4815 19.6269 13.2727 20.7682 11.2469ZM21.5024 11.8059C22.3183 12.085 23.1703 12.2446 24.032 12.2796C23.1389 14.4666 22.5538 16.7671 22.2935 19.1151C21.2557 19.0816 20.2303 18.88 19.2571 18.5182C19.633 16.1723 20.3932 13.9044 21.5071 11.8059H21.5024ZM22.284 19.1577C22.0265 21.4816 22.0934 23.8299 22.483 26.1353C21.3976 26.0988 20.3262 25.8794 19.3139 25.4863C18.9063 23.1992 18.8839 20.8601 19.2476 18.5656C20.2242 18.9206 21.2503 19.1204 22.2888 19.1577H22.284ZM24.5909 32.6155C25.3924 34.2039 26.4164 35.6698 27.6321 36.9688C27.8547 37.201 28.0821 37.4425 28.3142 37.6462C27.5272 37.6096 26.7535 37.4299 26.031 37.1157C24.3043 35.6851 22.8435 33.9613 21.7156 32.0234C22.6379 32.3731 23.6102 32.573 24.5957 32.6155H24.5909ZM27.6842 36.9215C26.4806 35.64 25.4662 34.1932 24.6715 32.625C26.2616 32.7238 27.8563 32.7238 29.4464 32.625C30.1212 34.3115 31.0112 35.9037 32.0943 37.362L32.317 37.651C31.0212 37.7229 29.7222 37.7118 28.4279 37.6178C28.1816 37.4188 27.9305 37.1773 27.6889 36.9215H27.6842ZM32.3833 37.7647C33.2552 38.8794 34.3168 39.8319 35.5192 40.5784C34.6177 40.6287 33.7138 40.6144 32.8144 40.5358C31.2314 39.8596 29.7777 38.914 28.5179 37.741C29.806 37.8338 31.0989 37.8417 32.388 37.7647H32.3833ZM32.4686 37.7647C34.2307 37.6794 36.2582 37.4757 38.3945 37.1678C38.7941 38.2165 39.3004 39.2213 39.9056 40.1663C38.3661 40.3842 36.9166 40.5216 35.6423 40.5784C34.4243 39.8383 33.3505 38.8833 32.4733 37.7599L32.4686 37.7647ZM39.9483 40.2279C40.1963 40.6101 40.5033 40.9506 40.8578 41.2369L41.0188 41.3411C40.0714 41.4737 39.1856 41.5543 38.4088 41.5874C37.4786 41.4361 36.5842 41.1149 35.7703 40.64C37.0208 40.5832 38.4372 40.4411 39.953 40.2232L39.9483 40.2279ZM40.8957 41.1753C40.5555 40.9076 40.2598 40.5878 40.0193 40.2279C40.8199 40.1142 41.6441 39.9768 42.4826 39.8205C43.321 39.6642 44.1405 39.4936 44.9269 39.3136C44.8329 39.74 44.673 40.1491 44.4532 40.5263C44.4045 40.6025 44.3507 40.6753 44.2921 40.7442C43.7805 40.8627 43.2547 40.9716 42.71 41.0758C42.1652 41.18 41.6346 41.2653 41.1183 41.3363C41.0438 41.2874 40.9726 41.2336 40.9052 41.1753H40.8957ZM44.5147 40.5453C44.7399 40.1537 44.8999 39.7281 44.9884 39.2852C46.4806 38.9394 47.8543 38.5605 49.0386 38.172C48.4475 38.9035 47.7285 39.5215 46.9164 39.9958C46.1822 40.2468 45.3248 40.4695 44.3963 40.7063C44.4424 40.6555 44.4851 40.6017 44.5242 40.5453H44.5147ZM45.0169 39.2047C45.2425 38.106 45.3536 36.9868 45.3485 35.8651C47.4659 35.3914 49.4175 34.8419 51.0944 34.2924C50.6736 35.6622 50.0111 36.9457 49.1381 38.082C47.9443 38.4657 46.5422 38.8542 45.0263 39.2047H45.0169ZM51.175 34.264C52.4024 33.8671 53.6033 33.3924 54.7703 32.8429C54.0156 34.3901 52.9996 35.7955 51.7671 36.9973C50.9559 37.392 50.1187 37.7307 49.2612 38.011C50.1151 36.8832 50.7659 35.6152 51.1844 34.264H51.175ZM51.2034 34.1693C51.2413 34.0556 51.2744 33.9371 51.3123 33.8187C51.7984 32.0625 52.0532 30.2503 52.0703 28.428C53.5873 27.945 55.0715 27.3643 56.5136 26.6895C56.3416 28.4425 55.9205 30.162 55.263 31.796C55.1304 32.1181 54.9835 32.4355 54.8319 32.7434C53.6574 33.2944 52.4485 33.7691 51.2129 34.1645L51.2034 34.1693ZM55.3151 31.8008C55.9841 30.1526 56.4132 28.417 56.5894 26.6469C57.4933 26.2518 58.3281 25.7145 59.0621 25.0553C58.7073 27.2702 57.9632 29.4048 56.8641 31.3602C56.3046 31.9144 55.6478 32.3608 54.9267 32.6771C55.0688 32.4024 55.2014 32.1087 55.3483 31.796L55.3151 31.8008ZM56.2246 19.8399C55.7536 17.5485 54.9693 15.3329 53.894 13.2554C54.8482 12.8487 55.7323 12.294 56.5136 11.6117C57.6791 13.6212 58.5004 15.8115 58.9436 18.0919C58.1466 18.8271 57.2304 19.4213 56.2341 19.8493L56.2246 19.8399ZM53.8561 13.2081C52.7668 11.1108 51.3909 9.1753 49.7681 7.45733C50.5622 7.11807 51.3026 6.66488 51.966 6.11203C53.7548 7.66992 55.2766 9.5101 56.4709 11.5596C55.7029 12.2504 54.8278 12.812 53.8798 13.2223L53.8561 13.2081ZM52.0324 6.07886C52.2569 5.89076 52.4106 5.6318 52.4682 5.34464C54.2612 6.82373 55.7838 8.60283 56.9683 10.6027C56.968 10.7776 56.9297 10.9504 56.8561 11.109C56.7825 11.2677 56.6753 11.4085 56.542 11.5217C55.3446 9.47437 53.8214 7.63597 52.0324 6.07886ZM52.4682 5.25463C52.4708 5.22943 52.4708 5.20403 52.4682 5.17884C52.461 5.13114 52.4466 5.08481 52.4255 5.04146C54.0595 6.42601 55.4703 8.05412 56.6083 9.86846C55.4727 8.13313 54.0781 6.58195 52.4729 5.26884L52.4682 5.25463ZM42.2268 0.427629C42.1614 0.378666 42.0897 0.338826 42.0136 0.309204C42.9047 0.442334 43.7861 0.6338 44.6521 0.882377C43.8543 0.678891 43.0441 0.526997 42.2268 0.427629ZM42.0657 0.427629C40.6786 0.278396 39.2795 0.278396 37.8924 0.427629C37.8884 0.405049 37.879 0.383774 37.865 0.365626C37.8509 0.347479 37.8327 0.332998 37.8119 0.323414C38.8697 0.161124 39.9432 0.126136 41.0094 0.2192L41.3504 0.252362C41.6016 0.267801 41.849 0.320477 42.0847 0.408677L42.0657 0.427629ZM37.6982 0.257104C37.61 0.230258 37.5197 0.211224 37.4282 0.200248C37.7416 0.148736 38.0581 0.118664 38.3756 0.110244C38.6219 0.110244 38.8493 0.110244 39.1098 0.110244C38.6373 0.126751 38.166 0.169458 37.6982 0.238152V0.257104ZM35.7324 0.356577C35.5265 0.489265 35.3506 0.663517 35.216 0.868166C35.0171 0.724384 34.7891 0.625776 34.5481 0.579216L34.8086 0.522375L35.1402 0.45605L35.4671 0.399208L35.7324 0.356577ZM33.1791 0.920281H33.217H33.1791ZM32.9281 1.03871C32.8451 1.07826 32.7672 1.12755 32.6959 1.18555C32.2353 1.28216 31.78 1.40233 31.3317 1.54557C31.5591 1.45557 31.8054 1.3703 32.0185 1.28977C32.3209 1.17306 32.6311 1.07808 32.947 1.00554L32.9281 1.03871ZM32.6107 1.27081C32.5952 1.28891 32.5838 1.31012 32.5773 1.333C32.5707 1.35589 32.5692 1.37992 32.5728 1.40345C31.226 1.76846 29.9222 2.27664 28.6837 2.91929C28.8583 2.74464 29.0599 2.59911 29.2806 2.48823L29.5885 2.32717C30.55 1.85085 31.5644 1.4899 32.6107 1.25186V1.27081ZM28.5416 2.99035C27.8155 3.37835 27.1146 3.81186 26.4431 4.28828C27.1609 3.74686 27.9125 3.25163 28.6932 2.8056C28.6429 2.85572 28.5984 2.91133 28.5605 2.97139L28.5416 2.99035ZM24.5815 5.89413C24.5407 5.98128 24.5275 6.07876 24.5436 6.17361C24.5496 6.20523 24.5608 6.23563 24.5767 6.26361C23.0828 7.68083 21.8058 9.3105 20.7871 11.1001C20.7693 10.9831 20.7841 10.8634 20.8298 10.7543C21.6786 9.23913 22.7129 7.83566 23.9088 6.57626C24.1314 6.32046 24.3636 6.09782 24.6004 5.87518L24.5815 5.89413ZM20.7208 11.1853C19.6967 12.9903 18.9585 14.943 18.5323 16.974C18.9413 14.866 19.6764 12.8347 20.7113 10.9532C20.7042 11.0003 20.7042 11.0482 20.7113 11.0953C20.7188 11.1198 20.7283 11.1436 20.7398 11.1664L20.7208 11.1853ZM18.4186 24.1789C18.0869 22.111 18.0869 20.0035 18.4186 17.9356C18.5898 18.2201 18.8518 18.4387 19.1623 18.5561C18.7978 20.8471 18.817 23.1828 19.2192 25.4674C19.0494 25.4024 18.8967 25.2995 18.7727 25.1665C18.6488 25.0335 18.5568 24.8739 18.5039 24.7C18.4944 24.5058 18.466 24.3353 18.4376 24.16L18.4186 24.1789ZM19.2334 25.529C19.2334 25.5811 19.2334 25.6285 19.2571 25.6758C19.6637 27.8589 20.4305 29.9592 21.5261 31.8908C21.3518 31.7986 21.1985 31.6712 21.0761 31.5165C19.8812 29.507 19.0355 27.3095 18.5749 25.0174C18.7544 25.2373 18.9878 25.4071 19.2523 25.51L19.2334 25.529ZM21.6019 31.9902C22.3805 33.3377 23.3189 34.5862 24.3967 35.7088C23.1866 34.5232 22.1271 33.1931 21.2419 31.7487C21.353 31.8363 21.4738 31.911 21.6019 31.9713V31.9902ZM26.2584 37.3146C26.9522 37.5623 27.6781 37.7091 28.4137 37.7504C29.6482 38.8994 31.0669 39.833 32.6107 40.5121C32.2898 40.4803 31.9726 40.4185 31.6633 40.3274C30.0152 39.7053 28.4523 38.8777 27.0115 37.8641C26.751 37.6794 26.4999 37.4804 26.2584 37.2957V37.3146ZM32.8144 40.6305C33.2527 40.8115 33.7002 40.9696 34.1549 41.1042C33.4965 40.9479 32.8475 40.7584 32.2128 40.5405C32.3975 40.5595 32.6107 40.5879 32.8144 40.6116V40.6305ZM33.0465 40.6305C33.912 40.692 34.7806 40.7 35.6471 40.6542C36.3985 41.1002 37.2177 41.4202 38.0724 41.6016C37.6461 41.6016 37.2624 41.6016 36.9261 41.5732L36.4097 41.5116C35.255 41.3661 34.1243 41.0699 33.0465 40.6305ZM38.8209 41.649C39.5219 41.6063 40.2988 41.5258 41.1183 41.4121C41.2165 41.4659 41.3218 41.5058 41.431 41.5306C40.7994 41.6063 40.1883 41.6537 39.5977 41.6727C39.3381 41.6751 39.0786 41.6608 38.8209 41.63V41.649ZM41.2415 41.3932C41.7152 41.3269 42.2268 41.2416 42.7384 41.1469C43.25 41.0521 43.7426 40.9479 44.2211 40.839C44.0921 40.9742 43.9281 41.0709 43.7474 41.1184C43.4205 41.1942 43.0889 41.2653 42.7526 41.3269C42.4163 41.3885 42.0799 41.4453 41.7483 41.4879C41.5723 41.4951 41.3975 41.4559 41.2415 41.3742V41.3932ZM44.3442 40.8105C45.1495 40.6258 45.9027 40.4221 46.5706 40.2042C46.3391 40.3209 46.1002 40.4222 45.8553 40.5074C45.2821 40.7063 44.6948 40.8816 44.0979 41.0332C44.1899 40.9652 44.2727 40.8856 44.3442 40.7963V40.8105ZM46.9638 40.0763H47.0206L46.9259 40.1142L46.9638 40.0763ZM47.2575 39.901C47.9914 39.4276 48.6413 38.8353 49.1807 38.1483C50.0051 37.8836 50.812 37.5672 51.5965 37.2009C50.7503 37.9909 49.8063 38.6691 48.7875 39.2189L48.3138 39.47C48.0012 39.5931 47.6506 39.7352 47.2575 39.8821V39.901ZM51.805 37.092C51.9992 36.9925 52.1792 36.8978 52.3403 36.7983C51.8239 37.2341 51.2887 37.6415 50.7344 38.0252C51.1082 37.7273 51.4655 37.4095 51.805 37.0731V37.092ZM51.9803 36.9215C53.1697 35.7262 54.1497 34.3394 54.8793 32.8192C55.5486 32.5142 56.172 32.1172 56.7315 31.6397C56.5751 31.905 56.4141 32.1702 56.2578 32.4308C55.2759 33.8978 54.1142 35.2362 52.7998 36.4146C52.5395 36.5981 52.2656 36.7612 51.9803 36.9025V36.9215ZM59.1379 24.9748C59.2323 24.8728 59.3164 24.7617 59.3889 24.6432C59.0811 26.3 58.572 27.9131 57.8731 29.4465C58.4753 28.013 58.9 26.5113 59.1379 24.9748ZM59.1379 24.8611C59.4682 22.6591 59.4265 20.4174 59.0147 18.2293L58.9863 18.0824C59.19 17.8858 59.3386 17.6391 59.4173 17.3671C59.8105 19.6732 59.8105 22.0292 59.4173 24.3353C59.3719 24.5246 59.2898 24.7032 59.1757 24.8611H59.1379ZM58.9721 18.0398C58.5239 15.7631 57.7011 13.5765 56.5373 11.569C56.7889 11.352 56.9565 11.0537 57.0109 10.7259C58.1598 12.6829 58.9611 14.8241 59.3794 17.0545C59.3999 17.2391 59.3771 17.4259 59.313 17.6001C59.2489 17.7744 59.1451 17.9314 59.01 18.0587L58.9721 18.0398Z" fill="white"/>
<path d="M38.9627 41.791C38.2745 41.7918 37.5867 41.757 36.9021 41.6868H36.741H36.5989H36.4805C34.8172 41.4838 33.184 41.083 31.6156 40.493L31.4261 40.4315L31.3693 40.4078C30.3424 40.0118 29.3478 39.5366 28.3945 38.9867H28.3376C27.8639 38.7072 27.3902 38.3945 26.9165 38.0393C26.5612 37.7882 26.2249 37.5371 25.9123 37.2861L25.8649 37.2482L25.7133 37.1345L25.6659 37.1013C23.7938 35.5666 22.2023 33.7186 20.9621 31.6396L20.9195 31.5733L20.8911 31.5259C18.4296 27.3331 17.5113 22.4117 18.2952 17.6133C18.2921 17.5897 18.2921 17.5659 18.2952 17.5423V17.4807C18.6906 15.1186 19.492 12.8429 20.6637 10.7541C20.6817 10.705 20.7039 10.6574 20.73 10.612L20.7631 10.5599C21.2803 9.65942 21.863 8.79812 22.5064 7.98302L22.5348 7.9309C22.9138 7.4572 23.3211 6.98351 23.7475 6.54771C24.0554 6.22559 24.3775 5.90821 24.6949 5.60031L24.8417 5.45346L24.8891 5.41556C26.1519 4.27163 27.5503 3.28688 29.0529 2.48336L29.2187 2.39335L29.3892 2.30335L29.4413 2.27967H29.484C30.2701 1.88048 31.082 1.53391 31.914 1.24226C32.6039 0.997868 33.3059 0.78916 34.0173 0.616977L34.1404 0.588556L34.7231 0.465389L35.0689 0.394337L35.4147 0.337496L35.9784 0.247492L36.1252 0.223812C36.8453 0.129072 37.5748 0.0722307 38.2948 0.0485457H38.8964C39.583 0.0476999 40.2692 0.0824853 40.9522 0.15276H41.047L41.4402 0.195392C43.1332 0.405137 44.7941 0.82195 46.3856 1.43648H46.4424C46.5074 1.45871 46.5708 1.48561 46.6319 1.517C47.0345 1.67806 47.4467 1.85807 47.8493 2.05229C48.4069 2.30799 48.9508 2.5926 49.4788 2.90495L49.5309 2.93338C50.4256 3.46434 51.2805 4.0596 52.0889 4.71448L52.141 4.74764C52.1838 4.78023 52.2234 4.8167 52.2595 4.8566L52.4821 5.04133C54.2277 6.52485 55.7176 8.28521 56.8922 10.252L56.9538 10.3515C58.1187 12.2979 58.9587 14.421 59.4407 16.6375C59.4692 16.7796 59.5023 16.9217 59.526 17.0638C59.9671 19.4253 59.9959 21.8454 59.6113 24.2167V24.283C59.605 24.3134 59.5971 24.3435 59.5876 24.373C59.1814 26.7519 58.3655 29.0422 57.1764 31.1422L57.1528 31.199C57.1266 31.2447 57.0982 31.289 57.0675 31.3317C56.8496 31.7106 56.5938 32.0991 56.3427 32.4875C56.0348 32.9612 55.7033 33.4349 55.3669 33.847L55.329 33.8944C54.6425 34.7536 53.8902 35.5582 53.0789 36.3008L53.0411 36.3481C52.9889 36.399 52.9335 36.4465 52.8753 36.4903C51.6325 37.5973 50.2617 38.5515 48.792 39.3325L48.6262 39.4225L48.4083 39.5314C46.9433 40.2723 45.3963 40.8383 43.7992 41.2178H43.7423C43.4297 41.2936 43.1218 41.3599 42.7949 41.4167C42.4681 41.4736 42.1933 41.521 41.8949 41.5636H41.8286C40.8867 41.6935 39.9372 41.7599 38.9864 41.7625L38.9627 41.791ZM38.4511 41.6678H38.8159V41.6157H38.4511V41.6441V41.6678ZM38.0248 41.6678H38.3422V41.6346L38.0769 41.5873V41.6536L38.0248 41.6678ZM41.1086 41.4736C40.8243 41.5115 40.5449 41.5494 40.2748 41.5778C40.5685 41.5778 40.867 41.5352 41.1701 41.502L41.1086 41.4736ZM33.4346 40.7346C34.3967 41.0908 35.3964 41.3356 36.4142 41.4641L36.9305 41.521C37.1232 41.5399 37.3363 41.5494 37.57 41.5494C36.8844 41.36 36.2266 41.0813 35.6136 40.7204C34.8879 40.7627 34.1603 40.7627 33.4346 40.7204V40.7346ZM35.9831 40.7109C36.7423 41.1262 37.5677 41.4067 38.4227 41.5399C39.1522 41.5115 39.9764 41.4357 40.8575 41.3173L40.8243 41.2936C40.4747 41.0156 40.1723 40.6829 39.9291 40.3083C38.508 40.5072 37.1911 40.6446 35.9831 40.7109ZM41.497 41.4167C41.5833 41.4308 41.6712 41.4308 41.7575 41.4167C42.0891 41.3694 42.4254 41.3173 42.7618 41.2557C43.0981 41.1941 43.4249 41.123 43.7518 41.0425C43.8362 41.0217 43.9163 40.9864 43.9886 40.9383C43.5765 41.0283 43.1597 41.1136 42.7476 41.1894C42.3354 41.2652 41.9091 41.341 41.497 41.4025V41.4167ZM40.1327 40.2799C40.3584 40.6058 40.6296 40.8977 40.938 41.1467C41.0078 41.2007 41.0823 41.2483 41.1607 41.2888C41.6344 41.2083 42.1791 41.1231 42.7144 41.0236C43.2497 40.9241 43.785 40.8104 44.2918 40.692C44.2918 40.6493 44.3676 40.5783 44.415 40.4978C44.6151 40.1551 44.7635 39.7848 44.8555 39.3988C44.0787 39.574 43.2876 39.7398 42.487 39.8725C41.6865 40.0051 40.9001 40.152 40.1185 40.2657L40.1327 40.2799ZM34.1546 41.1231L34.5383 41.2131L34.1594 41.1041L34.1546 41.1231ZM45.1871 40.6493L44.3581 40.853L44.3202 40.9004C44.6139 40.8246 44.9029 40.7394 45.1871 40.6493ZM45.0592 39.3372C44.9663 39.7744 44.8066 40.1946 44.5855 40.583V40.6162C45.4571 40.4078 46.2529 40.1804 46.954 39.9435C47.697 39.508 48.3615 38.9508 48.9199 38.2951C47.7688 38.6693 46.485 39.0198 45.0971 39.3372H45.0592ZM28.6929 37.8166C29.9161 38.9341 31.3189 39.8373 32.8425 40.4883C33.6697 40.5554 34.5004 40.5696 35.3294 40.5309C34.197 39.8012 33.1933 38.8888 32.3593 37.8308C31.1383 37.9054 29.9139 37.9054 28.6929 37.8308V37.8166ZM32.5914 37.8166C33.4562 38.8919 34.5013 39.8088 35.68 40.5262C36.9116 40.4599 38.309 40.3225 39.8059 40.1141C39.2326 39.1995 38.7487 38.2319 38.3611 37.2245C36.2863 37.5229 34.3441 37.7219 32.5914 37.8166ZM26.5755 37.4708C26.7318 37.5893 26.8834 37.7029 27.0492 37.8166C28.4783 38.8257 30.0283 39.6517 31.663 40.2751C31.8051 40.3178 31.9756 40.3557 32.1698 40.3935C30.7718 39.7189 29.4844 38.8356 28.3518 37.774C27.7441 37.7393 27.142 37.6376 26.5565 37.4708H26.5755ZM46.5703 40.1757V40.223L46.9114 40.0856V40.062L46.5656 40.1757H46.5703ZM38.5506 37.2008C38.9382 38.2092 39.427 39.1758 40.0096 40.0856C40.8338 39.9672 41.6628 39.8298 42.4681 39.683C43.2734 39.5362 44.0929 39.3609 44.9076 39.1761C45.1212 38.1157 45.2291 37.0367 45.2298 35.955C44.145 36.2013 43.0271 36.4287 41.9139 36.6419C40.8007 36.855 39.6638 37.0398 38.5648 37.2008H38.5506ZM47.0156 40.0146V40.0478L47.314 39.9198H47.2667L47.2382 39.8583C47.1624 39.9104 47.0819 39.9578 47.0061 40.0004L47.0156 40.0146ZM51.2789 37.395C50.6025 37.6931 49.9116 37.9572 49.2088 38.1861C48.7777 38.7375 48.2742 39.2283 47.7119 39.6451C47.9204 39.5598 48.1146 39.4746 48.2851 39.394L48.7588 39.143C49.6581 38.6556 50.5002 38.0693 51.2694 37.395H51.2789ZM45.4003 35.9124C45.4024 36.992 45.2993 38.0692 45.0924 39.1288C46.5656 38.783 47.9346 38.404 49.1141 38.0061C49.9495 36.9162 50.5905 35.6903 51.0089 34.3823C49.332 34.9318 47.4514 35.4434 45.4145 35.9124H45.4003ZM50.7104 37.9966L50.3978 38.2335L50.7247 38.0156L50.7104 37.9966ZM51.2173 34.3112C50.8188 35.5989 50.2106 36.8121 49.4173 37.9019C50.2091 37.6367 50.9829 37.3202 51.7336 36.9545C52.914 35.7999 53.8938 34.4567 54.6327 32.9801C53.5218 33.4915 52.3813 33.936 51.2173 34.3112ZM24.7659 32.6912C25.5497 34.2177 26.543 35.6272 27.7171 36.8787C27.935 37.1108 28.1908 37.3524 28.456 37.6129C29.6991 37.6845 30.9449 37.6924 32.1888 37.6366L32.0372 37.4377C30.9556 35.9801 30.0686 34.3876 29.3987 32.7007C27.8558 32.792 26.3088 32.792 24.7659 32.7007V32.6912ZM29.5929 32.6912C30.2575 34.3382 31.1298 35.8935 32.1888 37.3192L32.4209 37.6177C34.2068 37.5324 36.1773 37.3382 38.2758 37.0398C37.6337 35.3853 37.0896 33.6944 36.6463 31.9759C34.1167 32.3407 31.7483 32.5775 29.5929 32.6912ZM21.8432 32.1464C22.9544 34.0163 24.3808 35.6798 26.0591 37.0634C26.7169 37.3526 27.4213 37.521 28.1387 37.5608C27.9492 37.3808 27.7644 37.1961 27.5797 37.0066C26.3675 35.7111 25.3452 34.2502 24.5433 32.6675C23.6237 32.618 22.7152 32.4426 21.8432 32.1464ZM36.8311 31.9522C37.2828 33.6668 37.8316 35.3543 38.4748 37.0066C39.5927 36.8455 40.7343 36.6608 41.8665 36.4476C42.9986 36.2345 44.1165 36.0071 45.2345 35.7513C45.2343 33.9769 45.1331 32.204 44.9313 30.4411C43.6286 30.7348 42.2739 31.019 40.9049 31.2701C39.5359 31.5212 38.1953 31.7438 36.8453 31.9475L36.8311 31.9522ZM56.4801 31.8954C55.9827 32.2638 55.4495 32.5812 54.8885 32.8428C54.2292 34.2342 53.3548 35.5131 52.2973 36.6324C52.4481 36.5428 52.5936 36.4448 52.7332 36.3387C54.0447 35.1668 55.202 33.8329 56.1769 32.3691C56.2812 32.2128 56.3806 32.0517 56.4801 31.8954ZM24.3727 35.685C24.5575 35.865 24.7422 36.045 24.9364 36.2155C24.747 36.0402 24.567 35.8555 24.387 35.6708L24.3727 35.685ZM45.1018 30.3985C45.3015 32.1615 45.4027 33.9343 45.405 35.7087C47.4609 35.235 49.3699 34.7044 51.0894 34.1407L51.2031 33.776C51.6764 32.0657 51.9279 30.3017 51.9515 28.5274C49.9004 29.1953 47.603 29.8253 45.1208 30.3985H45.1018ZM52.1363 28.48C52.115 30.2941 51.8603 32.0979 51.3784 33.847L51.3073 34.0886C52.5028 33.698 53.6721 33.2313 54.8079 32.6912C54.9501 32.3643 55.0874 32.0659 55.2059 31.7722C55.8526 30.181 56.272 28.5066 56.4517 26.7984C55.0491 27.4471 53.6079 28.0087 52.1363 28.48ZM21.4453 31.9617C21.7153 32.388 22.0042 32.8049 22.3074 33.2123C22.0421 32.8238 21.7863 32.4212 21.5495 32.0091L21.4453 31.9617ZM24.6854 32.5159C26.2345 32.6124 27.788 32.6124 29.3371 32.5159C28.5375 30.4968 27.9516 28.3995 27.5892 26.2583C25.9407 26.3613 24.2875 26.3613 22.639 26.2583L22.6816 26.5094C23.059 28.594 23.7338 30.6137 24.6854 32.5065V32.5159ZM56.6506 26.7036C56.4749 28.4686 56.0474 30.1994 55.3811 31.8433C55.2817 32.0896 55.1727 32.317 55.059 32.5633C55.7186 32.2664 56.3189 31.8524 56.8307 31.3412C57.891 29.4465 58.6199 27.3847 58.986 25.2446C58.2782 25.8358 57.4924 26.3268 56.6506 26.7036ZM27.7786 26.2678C28.142 28.4098 28.7311 30.5074 29.5361 32.5254C31.6961 32.4117 34.0741 32.1749 36.6084 31.8101C36.0968 29.8537 35.6278 27.7363 35.2252 25.5099C32.5583 25.8936 30.0524 26.1494 27.7786 26.2678ZM19.4036 25.6378C19.8145 27.8373 20.5945 29.9514 21.7105 31.8906C22.5896 32.2359 23.5194 32.4344 24.4627 32.478C23.5334 30.5978 22.8717 28.5967 22.4969 26.5331C22.4969 26.4336 22.4637 26.3341 22.4448 26.2347C21.4071 26.1875 20.3822 25.9863 19.4036 25.6378ZM35.4147 25.4625C35.8173 27.6937 36.2816 29.8111 36.7979 31.7627C38.1337 31.5685 39.5075 31.3412 40.867 31.0901C42.2265 30.839 43.6002 30.5501 44.9124 30.2516C44.6897 28.2526 44.3629 26.1068 43.9318 23.8756C42.5486 24.193 41.118 24.4867 39.6685 24.752C38.219 25.0173 36.7931 25.2588 35.4052 25.4625H35.4147ZM18.6978 25.202C19.1668 27.4062 19.9941 29.5185 21.1468 31.4548C21.2128 31.5398 21.2892 31.6162 21.3742 31.6822C20.34 29.8028 19.6124 27.7703 19.2189 25.6615V25.5431C19.0353 25.4553 18.866 25.3403 18.7168 25.202H18.6978ZM44.1166 23.833C44.5429 26.0594 44.8697 28.2053 45.0924 30.209C47.5888 29.6358 49.8957 29.0058 51.9515 28.3142C51.9788 26.1417 51.7739 23.9725 51.3405 21.8435C49.1709 22.5493 46.7409 23.2125 44.1166 23.8141V23.833ZM57.8823 29.4274C57.7875 29.6548 57.6833 29.9011 57.5791 30.1143C57.688 29.8869 57.797 29.6643 57.9012 29.4321L57.8823 29.4274ZM51.5205 21.7914C51.9523 23.9208 52.1602 26.0895 52.141 28.2621C53.6192 27.7863 55.0668 27.2199 56.4754 26.5662C56.6806 24.4567 56.5817 22.3285 56.1817 20.2471C56.1817 20.1666 56.1533 20.0813 56.1343 20.0008C54.6348 20.6924 53.0939 21.2904 51.5205 21.7914ZM56.2954 19.9534C56.2954 20.0481 56.338 20.1476 56.3522 20.2471C56.7474 22.3066 56.851 24.4115 56.6601 26.4999C57.5337 26.117 58.3349 25.5866 59.0286 24.932C59.3585 22.7302 59.3184 20.4888 58.9102 18.3002C58.1239 18.9759 57.243 19.5329 56.2954 19.9534ZM59.2797 24.9178C59.2509 24.958 59.2193 24.996 59.1849 25.0315C59.1186 25.5052 59.0286 25.9789 58.9197 26.4526C59.057 25.9504 59.1802 25.4436 59.2797 24.932V24.9178ZM22.6058 26.1115C24.256 26.2095 25.9106 26.2095 27.5607 26.1115V26.0547C27.5607 25.941 27.5181 25.832 27.5039 25.7183C27.1713 23.5767 27.0302 21.4096 27.0823 19.2429C26.1917 19.2855 25.3391 19.3092 24.5575 19.3092C23.7854 19.3092 23.0653 19.3092 22.4211 19.2429C22.1724 21.529 22.2378 23.8384 22.6153 26.1068L22.6058 26.1115ZM27.2623 19.2381C27.2065 21.3985 27.346 23.5594 27.6792 25.6946C27.6792 25.7989 27.7123 25.9031 27.7313 26.0073V26.1068C30.0098 25.9836 32.5156 25.7231 35.1778 25.3394C34.9647 24.1362 34.7705 22.9093 34.5999 21.6919C34.4531 20.6308 34.3204 19.565 34.2067 18.5181C31.7198 18.8781 29.3797 19.1197 27.2481 19.2381H27.2623ZM19.3705 25.4673C20.3443 25.843 21.3734 26.0558 22.4164 26.0973C22.0412 23.8287 21.9759 21.5196 22.2221 19.2334C21.2259 19.1901 20.2413 19.0018 19.2994 18.6744C18.9486 20.9271 18.9726 23.2224 19.3705 25.4673ZM18.4752 18.106C18.1626 20.1166 18.1626 22.1635 18.4752 24.1741C18.5036 24.3493 18.5368 24.5199 18.5652 24.6904C18.6073 24.837 18.6808 24.9726 18.7806 25.088C18.8804 25.2033 19.0041 25.2956 19.1431 25.3583C18.7642 23.1206 18.7498 20.8362 19.1005 18.5939C18.8505 18.4906 18.6294 18.328 18.4562 18.1202L18.4752 18.106ZM34.4057 18.4944C34.5194 19.546 34.652 20.6118 34.7989 21.6635C34.9694 22.8856 35.1636 24.1125 35.3815 25.3109C36.8026 25.1073 38.2237 24.8657 39.6448 24.6004C41.0659 24.3351 42.487 24.0414 43.9081 23.7241C43.676 22.5303 43.4344 21.3129 43.136 20.1145C42.8897 19.0676 42.6291 18.0207 42.3591 17.0117C41.0659 17.3054 39.7348 17.5802 38.4037 17.8312C37.0726 18.0823 35.7273 18.3049 34.4152 18.4944H34.4057ZM59.0902 18.1439L59.1139 18.2623C59.5073 20.372 59.5585 22.5313 59.2655 24.6572C59.3248 24.5663 59.3711 24.4674 59.4028 24.3635C59.781 22.1414 59.7922 19.8723 59.436 17.6465C59.3447 17.8277 59.2283 17.9952 59.0902 18.1439ZM42.5107 16.9691C42.7902 18.0018 43.0507 19.0439 43.2876 20.0718C43.5718 21.2845 43.8323 22.4972 44.0644 23.6814C46.684 23.0846 49.1141 22.4214 51.2836 21.7156V21.6019L51.2268 21.3082C50.7642 19.2023 50.1159 17.1415 49.2893 15.1501C47.2524 15.8133 44.9834 16.4291 42.5344 16.988L42.5107 16.9691ZM49.4457 15.0743C50.2748 17.0778 50.9232 19.1514 51.3831 21.2703C51.4068 21.3698 51.4257 21.474 51.4494 21.5782V21.6587C53.0244 21.1594 54.5668 20.563 56.068 19.8729C55.606 17.6196 54.8361 15.4407 53.78 13.3974C52.3656 14.0435 50.9135 14.6035 49.4315 15.0743H49.4457ZM53.9648 13.3169C55.0293 15.3507 55.8133 17.5195 56.2954 19.7639C57.2532 19.3504 58.1366 18.7823 58.9102 18.0823C58.4737 15.845 57.6736 13.6944 56.5417 11.7158C55.7822 12.3628 54.9315 12.8944 54.0169 13.2932L53.9648 13.3169ZM22.4306 19.0534C23.9782 19.1458 25.53 19.1458 27.0776 19.0534C27.1369 16.7897 27.4241 14.5377 27.935 12.3316C26.6728 12.4023 25.4076 12.4023 24.1454 12.3316C23.2686 14.4814 22.6916 16.7416 22.4306 19.0486V19.0534ZM19.3468 18.4755C20.2831 18.8122 21.2657 19.0024 22.26 19.0392C22.5227 16.7329 23.098 14.4732 23.9701 12.3221C23.1465 12.2869 22.3318 12.137 21.5495 11.8768C20.4655 13.9437 19.7217 16.1719 19.3468 18.4755ZM28.1481 12.3174C27.6331 14.5212 27.3442 16.7719 27.286 19.0344C29.4082 18.916 31.7388 18.6744 34.221 18.3144C33.9794 16.0217 33.8325 13.8048 33.7757 11.73C31.7767 12.0189 29.8819 12.2037 28.1481 12.3174ZM20.7916 11.37C19.6818 13.3659 18.9208 15.5366 18.5415 17.7886C18.6616 18.0654 18.8864 18.2834 19.1668 18.3949C19.5495 16.0965 20.2963 13.8738 21.379 11.8105C21.1487 11.7163 20.9465 11.5646 20.7916 11.37ZM33.9604 11.7063C34.0125 13.7764 34.1641 15.9696 34.4057 18.286C35.7084 18.0965 37.0442 17.8739 38.38 17.6275C39.7159 17.3812 41.028 17.1065 42.3212 16.8128C41.7196 14.5864 41.0612 12.4642 40.3648 10.5126C39.3274 10.7447 38.2522 10.9863 37.1769 11.171C36.1016 11.3558 35.0215 11.55 33.9604 11.7063ZM18.4326 17.5375C18.3994 17.7507 18.3662 17.9639 18.3378 18.177L18.3804 17.8976L18.4136 17.7081C18.4562 17.4523 18.5036 17.1917 18.5604 16.9359H18.532C18.4989 17.1112 18.4704 17.2865 18.442 17.4617V17.5233L18.4326 17.5375ZM56.6459 11.5784C57.7823 13.5447 58.5933 15.6818 59.0476 17.907C59.1535 17.7982 59.2345 17.6678 59.2852 17.5247C59.3359 17.3816 59.355 17.2292 59.3413 17.078C58.9383 14.9036 58.1729 12.8123 57.077 10.8915C56.9911 11.1521 56.8432 11.3878 56.6459 11.5784ZM40.5401 10.4652C41.2365 12.4216 41.8949 14.539 42.4965 16.7654C44.9408 16.2112 47.2051 15.5954 49.2325 14.9417C48.3575 12.8532 47.2769 10.857 46.0066 8.98252C44.3534 9.5178 42.5154 10.0152 40.5401 10.4652ZM46.1866 8.92568C47.458 10.7987 48.5372 12.7952 49.4078 14.8848C50.8865 14.4191 52.3356 13.8639 53.7469 13.2221C52.6722 11.1638 51.3207 9.26235 49.7299 7.57089C48.5766 8.09215 47.3935 8.54455 46.1866 8.92568ZM49.9052 7.50458C51.4972 9.19088 52.8503 11.0876 53.9269 13.1416C54.8432 12.7488 55.6932 12.2167 56.447 11.5642C55.258 9.55369 53.7528 7.74786 51.9894 6.21611C51.353 6.73939 50.6467 7.17144 49.891 7.49983L49.9052 7.50458ZM24.2306 12.18C25.4838 12.2424 26.7395 12.2345 27.9918 12.1563C28.4052 10.4002 29.0005 8.69194 29.7682 7.0593C28.8961 7.11606 28.0216 7.12396 27.1486 7.08298C25.9638 8.64543 24.9847 10.3537 24.2354 12.1658L24.2306 12.18ZM21.6253 11.7395C22.4032 11.9954 23.2133 12.1405 24.0317 12.1705C24.7761 10.3541 25.7487 8.63969 26.926 7.06877C26.3535 7.04488 25.7865 6.94615 25.2396 6.77507C23.8116 8.24881 22.5966 9.915 21.63 11.7252L21.6253 11.7395ZM29.9719 7.06404C29.2005 8.68954 28.6019 10.3916 28.186 12.1421C29.9008 12.0426 31.7767 11.8437 33.7662 11.5547C33.7283 9.75938 33.7662 8.10617 33.861 6.64244C32.4778 6.84613 31.1703 6.98825 29.9719 7.06404ZM20.8911 11.19C21.0177 11.409 21.2172 11.5767 21.4548 11.6637C22.4101 9.84764 23.6138 8.17359 25.0312 6.68981C24.8705 6.62491 24.7276 6.5226 24.6143 6.39138C23.1407 7.79198 21.88 9.40066 20.8721 11.1663L20.8911 11.19ZM34.0315 6.60455C33.9273 8.06828 33.8988 9.71675 33.9415 11.5121C34.9836 11.3605 36.0542 11.1805 37.1247 10.9815C38.1953 10.7826 39.2564 10.5647 40.2891 10.3278C39.6827 8.64145 39.0622 7.1114 38.4416 5.7803C37.7216 5.94136 36.9826 6.09295 36.2437 6.23032C35.5047 6.36769 34.7657 6.4956 34.0315 6.60455ZM20.6731 11.1473L20.4979 11.4837L20.6779 11.1568L20.6731 11.1473ZM52.1268 6.07401C53.8778 7.61201 55.3729 9.41887 56.5559 11.4268C56.669 11.3233 56.7594 11.1974 56.8214 11.0572C56.8833 10.9169 56.9155 10.7654 56.9159 10.612C55.7496 8.65723 54.26 6.91454 52.5105 5.45819C52.4375 5.69541 52.3035 5.90936 52.1221 6.07873L52.1268 6.07401ZM57.0059 10.5315L57.1007 10.6926L57.2428 10.9436C57.1433 10.7542 57.0391 10.5694 56.9301 10.3847L56.8922 10.3326C56.8022 10.181 56.7122 10.0247 56.6175 9.85886C56.7596 10.072 56.8922 10.2899 57.0249 10.5126L57.0059 10.5315ZM24.5006 6.05031C24.3159 6.23032 24.1312 6.41032 23.9559 6.59507C22.7632 7.84968 21.732 9.24847 20.8863 10.7589L20.8579 10.8442C21.8572 9.14027 23.0932 7.58684 24.5291 6.23032C24.5263 6.2083 24.5263 6.18603 24.5291 6.16401C24.5267 6.12615 24.5267 6.08817 24.5291 6.05031H24.5006ZM38.6169 5.74241C39.2374 7.06877 39.8627 8.58461 40.4691 10.2899C42.4254 9.84466 44.2587 9.34253 45.8882 8.83093C44.8707 7.34557 43.6989 5.97209 42.3923 4.73343C41.2459 5.09344 39.9764 5.43451 38.6027 5.74241H38.6169ZM42.596 4.66712C43.8944 5.90998 45.0597 7.28483 46.0729 8.76936C47.2698 8.3928 48.4448 7.94999 49.5925 7.44299C48.2411 6.02176 46.7128 4.77998 45.045 3.74814C44.2456 4.09781 43.4281 4.40457 42.596 4.66712ZM45.2487 3.65339C46.9062 4.69333 48.4261 5.93791 49.7725 7.35773C50.5256 7.0378 51.229 6.61189 51.8615 6.09295C50.3107 4.75193 48.5789 3.6357 46.7172 2.77705C46.2678 3.13297 45.7742 3.42914 45.2487 3.65814V3.65339ZM27.2765 6.90298C28.134 6.93387 28.9925 6.92121 29.8487 6.86508C30.3728 5.78373 31.0078 4.75978 31.7435 3.80972C31.1893 3.84288 30.6872 3.84761 30.2561 3.8334C29.1563 4.74443 28.1603 5.77383 27.286 6.90298H27.2765ZM25.3817 6.63297C25.9318 6.78431 26.4979 6.87018 27.0681 6.88877C27.931 5.76361 28.9107 4.73308 29.9908 3.81445C29.6706 3.79989 29.353 3.75065 29.0434 3.6676C27.7194 4.51893 26.493 5.51338 25.3865 6.63297H25.3817ZM32.0135 3.79077C31.2652 4.73764 30.6204 5.76193 30.0903 6.84613C31.2651 6.77033 32.5441 6.62823 33.8799 6.43401C33.9457 5.46302 34.0675 4.49665 34.2447 3.53971C33.4536 3.65814 32.6956 3.7434 31.9993 3.79077H32.0135ZM24.7849 6.26821C24.895 6.40063 25.0391 6.50053 25.2017 6.55718C26.2977 5.43652 27.5128 4.43899 28.8255 3.58234C28.7447 3.54618 28.6697 3.4983 28.6029 3.44024C27.2267 4.24005 25.9458 5.19355 24.7849 6.28244V6.26821ZM34.4436 3.51602C34.2614 4.47073 34.138 5.43574 34.0741 6.40559C34.7847 6.30137 35.4952 6.17822 36.2342 6.04084C36.9732 5.90347 37.6553 5.76136 38.3848 5.60503C37.9745 4.72281 37.5126 3.86552 37.0016 3.03759C36.5895 3.12759 36.1631 3.21759 35.7226 3.29812C35.2821 3.37865 34.8557 3.4497 34.4436 3.51602ZM28.4703 3.17495C27.2671 3.84095 26.1394 4.63506 25.107 5.54345L24.837 5.78504C24.7633 5.87286 24.7215 5.98308 24.7185 6.09769C25.8737 5.0306 27.1449 4.09632 28.5081 3.31233C28.5059 3.29186 28.5059 3.27121 28.5081 3.25075C28.5055 3.23348 28.5055 3.21591 28.5081 3.19865L28.4703 3.17495ZM46.8877 2.6302C48.7453 3.49378 50.4748 4.60961 52.0273 5.9461C52.2164 5.77933 52.3405 5.55119 52.3779 5.30187C50.8028 4.01483 49.0472 2.96622 47.1672 2.18966C47.1082 2.35397 47.0107 2.50177 46.883 2.62073L46.8877 2.6302ZM37.1769 2.99969C37.6867 3.8267 38.1485 4.68235 38.5601 5.5624C39.8864 5.26397 41.1322 4.93239 42.2596 4.57711C41.3743 3.7578 40.404 3.03526 39.3653 2.42177C38.6974 2.62546 37.9443 2.81968 37.1769 2.99969ZM52.5626 5.22134L52.861 5.4724L52.5626 5.20713V5.22134ZM47.1956 2.00966C49.0228 2.75641 50.7342 3.75969 52.2784 4.98923C52.2624 4.96332 52.2433 4.93946 52.2215 4.91818C51.7479 4.53448 51.2741 4.16025 50.7673 3.81445V3.73393L50.7341 3.78129C50.5494 3.65339 50.3647 3.53023 50.1704 3.4118C49.438 2.94181 48.677 2.51783 47.8919 2.14229C47.6551 2.03334 47.4182 1.92912 47.1767 1.82965C47.192 1.86615 47.2032 1.9043 47.2098 1.94334C47.2124 1.96538 47.2124 1.98762 47.2098 2.00966H47.1956ZM26.4523 4.25973L25.936 4.66238C26.1065 4.52974 26.2865 4.40184 26.4618 4.27394L26.4523 4.25973ZM39.5643 2.36493C40.5847 2.98703 41.5373 3.71418 42.4065 4.53448C43.3255 4.24079 44.1355 3.94236 44.8224 3.64393C43.5986 2.9057 42.2976 2.30367 40.9428 1.8486C40.5496 2.01913 40.0806 2.18966 39.5454 2.36493H39.5643ZM30.4693 3.65814C30.8861 3.65814 31.3646 3.65813 31.8904 3.62023C32.471 2.89677 33.1339 2.24341 33.8657 1.67333H33.5862C32.4803 2.21703 31.4367 2.87936 30.474 3.64865L30.4693 3.65814ZM29.2234 3.54444C29.5468 3.6075 29.8747 3.64394 30.204 3.65339C31.1208 2.88642 32.1201 2.22391 33.1836 1.67807H33.0509C31.7125 2.17448 30.4297 2.80953 29.2234 3.57287V3.54444ZM34.7847 1.57386L34.202 1.64491C33.4378 2.21043 32.7458 2.86746 32.1414 3.60129C32.8093 3.55392 33.5246 3.4734 34.2636 3.36444C34.3814 2.75271 34.5558 2.15327 34.7847 1.57386ZM41.2128 1.73492C42.5512 2.20144 43.8359 2.80964 45.045 3.54918C45.5707 3.32849 46.0671 3.04369 46.5229 2.70125C45.0878 2.05701 43.5868 1.57097 42.0465 1.25173C41.7868 1.43972 41.5072 1.59858 41.2128 1.72543V1.73492ZM28.7402 3.37391C28.815 3.42302 28.8963 3.46129 28.9818 3.4876C29.9842 2.84046 31.0396 2.27949 32.1367 1.81071C30.9598 2.22251 29.8216 2.7377 28.7355 3.35023L28.7402 3.37391ZM34.9789 1.52649C34.7342 2.10394 34.5516 2.70577 34.4341 3.32181C34.8273 3.26497 35.2347 3.1939 35.6421 3.11811C36.0494 3.04232 36.4568 2.9618 36.8453 2.87179C36.512 2.34058 36.1247 1.84529 35.6894 1.39385L35.3342 1.4649L34.9789 1.52649ZM31.4025 1.87702C30.4456 2.20305 29.5159 2.60377 28.6218 3.07548C28.6168 3.11638 28.6168 3.15775 28.6218 3.19865C29.5184 2.69068 30.4509 2.24896 31.4119 1.87702H31.4025ZM35.8884 1.35122C36.3139 1.80797 36.6946 2.30445 37.0253 2.83389C37.75 2.66809 38.4464 2.4881 39.0859 2.29388C38.2555 1.82266 37.369 1.45819 36.4474 1.2091C36.2673 1.26121 36.0826 1.30859 35.8884 1.35122ZM42.2123 1.08121C43.7456 1.40939 45.2386 1.90335 46.6651 2.55441C46.7974 2.44522 46.896 2.30065 46.9493 2.13756C45.4773 1.54235 43.942 1.11798 42.3733 0.872779C42.3292 0.949118 42.275 1.01922 42.2123 1.08121ZM32.5156 1.33701C31.5152 1.56735 30.5442 1.91061 29.6213 2.36019C29.5171 2.4123 29.4129 2.46442 29.3134 2.52126L29.2708 2.54494C30.3137 2.04622 31.3997 1.64348 32.5156 1.34174V1.33701ZM36.7789 1.10963C37.6671 1.37885 38.5208 1.75086 39.3227 2.21808C39.8248 2.06176 40.2701 1.90071 40.6585 1.74438C39.4811 1.37065 38.2656 1.12916 37.0347 1.02437L36.7789 1.10963ZM42.4065 0.688029C43.9555 0.93404 45.4726 1.35027 46.9303 1.92913C46.8834 1.82056 46.8017 1.73061 46.6982 1.67333L46.3761 1.55491C45.0877 1.08554 43.7518 0.758329 42.3923 0.579087V0.62646C42.3947 0.646917 42.3947 0.667571 42.3923 0.688029H42.4065ZM31.3219 1.517L30.9714 1.65912L31.3314 1.5407V1.517H31.3219ZM37.409 0.872779C38.6124 1.00228 39.7986 1.25952 40.9475 1.64017C41.2362 1.50202 41.5148 1.34373 41.7812 1.16647C40.3766 0.897064 38.9479 0.773247 37.5179 0.796985L37.409 0.853827V0.872779ZM34.2683 1.34648L34.041 1.44595H34.1452L34.2683 1.35595V1.34648ZM34.9694 1.12384L34.5289 1.39385L34.8557 1.34648L34.9694 1.12384ZM35.2394 1.00541C35.1826 1.10015 35.121 1.19963 35.0641 1.31332L35.2915 1.27068L35.5142 1.22805C35.4273 1.14821 35.3355 1.07385 35.2394 1.00541ZM34.0031 1.1191V1.18542L34.5147 1.03383V1.10016L34.7705 1.00067L34.7989 1.06226L35.0594 0.91541L35.1257 0.882248L35.0641 0.839616V0.891731L34.652 0.86331V0.934362H34.4199V1.00067L33.8846 1.10016H33.9604L34.0031 1.1191ZM35.5378 1.01962C35.5994 1.07173 35.661 1.12384 35.7226 1.18542L36.0447 1.10963C35.8742 1.07173 35.7084 1.04331 35.5378 1.01962ZM44.6281 0.87752L45.2392 1.04805C45.0355 0.981727 44.8366 0.920154 44.6329 0.86331L44.6281 0.87752ZM38.4464 0.621718C39.6354 0.655664 40.8193 0.791955 41.9849 1.02909C42.0539 0.971866 42.1159 0.906687 42.1696 0.834889C40.9372 0.654978 39.6913 0.583643 38.4464 0.621718ZM32.9136 0.958041L32.9372 1.01488L33.1646 0.910668V0.886989L32.923 0.958041H32.9136ZM36.2863 0.958041L36.4474 0.995945L36.5326 0.967524H36.2863V0.958041ZM35.2678 0.8491H35.3436L35.6373 0.891731V0.820664H35.9263V0.754354C36.1016 0.754354 36.2768 0.721197 36.4568 0.711723V0.64067H36.5326L35.9973 0.740143V0.673818L35.7747 0.740143V0.673818L35.4052 0.8491L35.372 0.806454L35.3294 0.868037L35.2678 0.8491ZM33.1836 0.8491V0.872779L33.4725 0.830148V0.768564L33.1836 0.8491ZM34.7941 0.526973C34.9356 0.579566 35.0706 0.647903 35.1968 0.730675C35.2842 0.607019 35.386 0.494117 35.5 0.394337H35.4715L34.8178 0.517504L34.7941 0.526973ZM34.3583 0.711723H34.5999H34.7989C34.6486 0.650779 34.4873 0.621747 34.3252 0.62646L34.0267 0.706981L34.3583 0.711723ZM39.1427 0.394337C40.1715 0.39884 41.1987 0.47482 42.217 0.621718C42.206 0.572239 42.1774 0.52845 42.1365 0.498552C41.1422 0.394086 40.1418 0.359262 39.1427 0.394337ZM36.3005 0.294864L35.9879 0.328027C35.8331 0.379105 35.6921 0.464993 35.5757 0.579087L35.7558 0.498552C35.9358 0.42276 36.1158 0.356445 36.3005 0.294864ZM37.9206 0.294864C39.0712 0.177314 40.2299 0.16146 41.3833 0.247492H41.3265L40.9901 0.209602C39.967 0.122089 38.9372 0.150689 37.9206 0.294864ZM36.8263 0.148019V0.214329L37.1105 0.148019L36.8168 0.171698L36.8263 0.148019ZM37.1626 0.171698V0.143277H37.4042V0.0816937H37.1532V0.105387L37.1626 0.171698ZM39.0859 0.0390625V0.0627562C39.209 0.0627562 39.3369 0.0627562 39.4601 0.0627562H39.0811L39.0859 0.0390625Z" fill="white"/>
<path d="M36.6839 27.4709C36.9182 27.6174 37.1891 27.6946 37.4655 27.6935C37.9392 27.6935 38.1807 27.4614 38.1807 27.1109C38.1807 26.7603 38.0007 26.6088 37.5412 26.4382C36.9823 26.2345 36.6365 25.9408 36.6365 25.4624C36.6407 25.3256 36.6734 25.1913 36.7325 25.0678C36.7916 24.9444 36.8757 24.8346 36.9796 24.7455C37.0834 24.6563 37.2046 24.5898 37.3356 24.5501C37.4666 24.5105 37.6044 24.4985 37.7402 24.515C38.0019 24.5048 38.2616 24.5636 38.4934 24.6855L38.3702 25.0456C38.1747 24.9325 37.9518 24.8751 37.726 24.8798C37.2523 24.8798 37.0818 25.1592 37.0818 25.3961C37.0818 25.7135 37.2902 25.8698 37.7639 26.0545C38.3418 26.2819 38.6308 26.5567 38.6308 27.0588C38.6308 27.5609 38.2423 28.0441 37.437 28.0441C37.1327 28.0469 36.8326 27.9719 36.5654 27.8262L36.6839 27.4709Z" fill="#939191"/>
<path d="M39.5078 26.8603C39.4972 26.9733 39.5114 27.0873 39.5492 27.1942C39.5871 27.3012 39.6478 27.3987 39.7272 27.4798C39.8065 27.561 39.9026 27.6238 40.0087 27.6641C40.1148 27.7044 40.2284 27.7211 40.3416 27.713C40.575 27.7198 40.8073 27.6778 41.0237 27.5898L41.1042 27.9025C40.8451 28.0118 40.5658 28.0651 40.2847 28.0588C40.1212 28.0681 39.9576 28.0423 39.8049 27.9831C39.6522 27.9238 39.5139 27.8326 39.3995 27.7154C39.285 27.5983 39.197 27.4579 39.1413 27.3039C39.0857 27.1499 39.0636 26.9857 39.0768 26.8224C39.0583 26.6581 39.0743 26.4916 39.1236 26.3337C39.1729 26.1758 39.2544 26.0299 39.3631 25.9052C39.4718 25.7805 39.6052 25.6797 39.7549 25.6093C39.9045 25.5388 40.0672 25.5003 40.2326 25.4961C40.3772 25.4984 40.5198 25.531 40.651 25.5919C40.7822 25.6528 40.8991 25.7406 40.9943 25.8495C41.0894 25.9585 41.1606 26.0862 41.2032 26.2244C41.2458 26.3627 41.2589 26.5083 41.2416 26.6519C41.2476 26.7228 41.2476 26.7942 41.2416 26.8651L39.5078 26.8603ZM40.8105 26.5382C40.8232 26.4496 40.8171 26.3593 40.7924 26.2732C40.7678 26.1872 40.7252 26.1073 40.6675 26.0388C40.6098 25.9704 40.5382 25.9149 40.4576 25.8761C40.3769 25.8372 40.2889 25.8159 40.1994 25.8135C40.0147 25.8254 39.8412 25.9067 39.7138 26.0411C39.5865 26.1755 39.5146 26.3531 39.5126 26.5382H40.8105Z" fill="#939191"/>
<path d="M43.5429 27.9255C43.3191 28.0179 43.0792 28.0646 42.8371 28.0629C42.6715 28.0715 42.5059 28.0446 42.3515 27.9841C42.1971 27.9236 42.0574 27.8309 41.9417 27.712C41.826 27.5932 41.737 27.451 41.6807 27.2951C41.6243 27.1391 41.6019 26.9729 41.6149 26.8076C41.6067 26.6325 41.6353 26.4576 41.699 26.2943C41.7627 26.131 41.86 25.9829 41.9846 25.8596C42.1092 25.7363 42.2584 25.6406 42.4224 25.5787C42.5864 25.5167 42.7615 25.49 42.9365 25.5001C43.1493 25.4964 43.36 25.5418 43.5524 25.6328L43.4529 25.9691C43.2919 25.8918 43.1151 25.8529 42.9365 25.8554C42.8146 25.8519 42.6932 25.8747 42.5808 25.9222C42.4684 25.9696 42.3674 26.0406 42.2848 26.1304C42.2022 26.2203 42.1398 26.3268 42.1018 26.4428C42.0639 26.5588 42.0513 26.6815 42.0649 26.8028C42.055 26.9208 42.0699 27.0396 42.1086 27.1514C42.1474 27.2633 42.2091 27.3658 42.2899 27.4524C42.3707 27.539 42.4687 27.6077 42.5776 27.6541C42.6865 27.7005 42.804 27.7235 42.9223 27.7218C43.1105 27.7237 43.2967 27.6832 43.4671 27.6034L43.5429 27.9255Z" fill="#939191"/>
<path d="M46.1203 27.3378C46.1203 27.5936 46.1203 27.8115 46.1203 28.0105H45.7224V27.6078C45.6432 27.7529 45.5259 27.8737 45.3832 27.9572C45.2405 28.0407 45.0777 28.0836 44.9124 28.0815C44.5239 28.0815 44.0645 27.8636 44.0645 27.0109V25.5898H44.5097V26.9399C44.5097 27.4136 44.6566 27.7262 45.0592 27.7262C45.1864 27.7239 45.3101 27.684 45.4146 27.6115C45.5191 27.539 45.5999 27.4372 45.6466 27.3188C45.677 27.2454 45.6916 27.1663 45.6892 27.0867V25.5898H46.1345L46.1203 27.3378Z" fill="#939191"/>
<path d="M46.8684 26.3204C46.8684 26.0315 46.8684 25.7852 46.8447 25.5578H47.2379V26.0315C47.282 25.8825 47.3713 25.7509 47.4936 25.655C47.6158 25.5591 47.7648 25.5036 47.92 25.4962C47.9609 25.4908 48.0023 25.4908 48.0432 25.4962V25.9131C47.9911 25.9101 47.9389 25.9101 47.8869 25.9131C47.735 25.9205 47.5908 25.9826 47.4811 26.0879C47.3714 26.1933 47.3035 26.3347 47.29 26.4862C47.2847 26.5572 47.2847 26.6284 47.29 26.6994V28.0068H46.8447L46.8684 26.3204Z" fill="#939191"/>
<path d="M48.7492 25.1031C48.6925 25.1013 48.6376 25.0828 48.5913 25.0499C48.5451 25.0171 48.5095 24.9713 48.4891 24.9184C48.4687 24.8654 48.4643 24.8076 48.4765 24.7522C48.4887 24.6968 48.5169 24.6462 48.5577 24.6067C48.5984 24.5673 48.6499 24.5407 48.7057 24.5303C48.7615 24.5199 48.8191 24.5261 48.8713 24.5483C48.9236 24.5704 48.9682 24.6074 48.9995 24.6547C49.0309 24.702 49.0476 24.7575 49.0476 24.8142C49.049 24.8525 49.0424 24.8907 49.0283 24.9263C49.0143 24.962 48.9931 24.9944 48.966 25.0215C48.9389 25.0486 48.9065 25.0698 48.8708 25.0838C48.8351 25.0979 48.797 25.1045 48.7587 25.1031H48.7492ZM48.5408 28.0117V25.5579H48.9861V28.0069L48.5408 28.0117Z" fill="#939191"/>
<path d="M50.2655 24.9648V25.557H50.905V25.8933H50.2655V27.2197C50.2655 27.5228 50.3508 27.6934 50.5971 27.6934C50.6849 27.6966 50.7726 27.6871 50.8576 27.6649V28.006C50.7303 28.0452 50.5977 28.0644 50.4645 28.0628C50.3772 28.0653 50.2903 28.0501 50.2089 28.0184C50.1276 27.9867 50.0534 27.939 49.9908 27.8781C49.8578 27.6911 49.7972 27.4622 49.8202 27.2339V25.8933H49.4365V25.557H49.8202V25.0833L50.2655 24.9648Z" fill="#939191"/>
<path d="M51.6104 25.5566L52.1456 27.0062C52.2072 27.1672 52.2641 27.3614 52.3067 27.5083C52.3541 27.3614 52.4062 27.172 52.463 26.9967L52.9367 25.5756H53.4104L52.7378 27.3235C52.584 27.8958 52.2966 28.4234 51.8993 28.8631C51.7436 29.0034 51.5543 29.1012 51.3498 29.1473L51.2409 28.7731C51.3852 28.7309 51.5181 28.6564 51.6293 28.5552C51.7908 28.4205 51.9189 28.2503 52.0035 28.0578C52.0227 28.0262 52.0341 27.9905 52.0367 27.9536C52.0361 27.9134 52.0247 27.8741 52.0035 27.8399L51.1035 25.5756L51.6104 25.5566Z" fill="#939191"/>
<path d="M36.6839 32.5451C36.9182 32.6916 37.1891 32.7688 37.4655 32.7678C37.9392 32.7678 38.1807 32.5357 38.1807 32.1851C38.1807 31.8346 38.0007 31.683 37.5412 31.5125C36.9823 31.3088 36.6365 31.0388 36.6365 30.5366C36.6407 30.3999 36.6734 30.2655 36.7325 30.142C36.7916 30.0186 36.8757 29.9088 36.9796 29.8197C37.0834 29.7306 37.2046 29.664 37.3356 29.6244C37.4666 29.5847 37.6044 29.5727 37.7402 29.5892C38.0012 29.5803 38.2603 29.6373 38.4934 29.755L38.3702 30.115C38.1731 30.0064 37.9511 29.9509 37.726 29.954C37.2523 29.954 37.0818 30.2335 37.0818 30.4656C37.0818 30.7877 37.2902 30.9393 37.7639 31.124C38.3418 31.3561 38.6308 31.6309 38.6308 32.1283C38.6308 32.6257 38.2423 33.1183 37.437 33.1183C37.132 33.1221 36.8313 33.0453 36.5654 32.8957L36.6839 32.5451Z" fill="#939191"/>
<path d="M39.7391 30.0391V30.6264H40.3786V30.9675H39.7391V32.2702C39.7391 32.5781 39.8291 32.7439 40.0755 32.7439C40.1632 32.7472 40.251 32.7376 40.336 32.7155V33.0518C40.2081 33.0957 40.0733 33.1166 39.9381 33.1134C39.8507 33.1169 39.7634 33.1023 39.6819 33.0705C39.6004 33.0387 39.5264 32.9904 39.4644 32.9286C39.3297 32.7423 39.2674 32.5133 39.2891 32.2844V30.9438H38.9102V30.6028H39.2891V30.1527L39.7391 30.0391Z" fill="#939191"/>
<path d="M42.6105 32.4928C42.6098 32.6892 42.6224 32.8854 42.6484 33.0801H42.2458L42.2079 32.7722C42.1223 32.8894 42.0093 32.9839 41.8789 33.0475C41.7484 33.111 41.6044 33.1418 41.4594 33.137C41.3633 33.1442 41.2667 33.1314 41.1758 33.0993C41.0849 33.0673 41.0016 33.0167 40.9312 32.9508C40.8609 32.8849 40.805 32.8051 40.7671 32.7165C40.7291 32.6278 40.71 32.5323 40.711 32.4359C40.711 31.8391 41.2368 31.5169 42.1842 31.5217V31.4696C42.194 31.3934 42.1864 31.316 42.1619 31.2433C42.1374 31.1705 42.0967 31.1042 42.0429 31.0495C41.989 30.9947 41.9235 30.9529 41.8511 30.9272C41.7788 30.9015 41.7015 30.8926 41.6252 30.9011C41.3971 30.8991 41.1733 30.9633 40.981 31.0859L40.8815 30.7827C41.1287 30.6437 41.408 30.5719 41.6915 30.5743C42.4495 30.5743 42.6389 31.0859 42.6389 31.5785L42.6105 32.4928ZM42.1747 31.8296C41.701 31.8296 41.1373 31.9054 41.1373 32.3838C41.1316 32.4404 41.1383 32.4975 41.1571 32.5512C41.1759 32.6049 41.2063 32.6538 41.246 32.6944C41.2858 32.7351 41.334 32.7665 41.3872 32.7865C41.4405 32.8065 41.4975 32.8146 41.5542 32.8101C41.6851 32.8137 41.8138 32.7758 41.9219 32.7018C42.0299 32.6277 42.1118 32.5214 42.1557 32.398C42.1629 32.3509 42.1629 32.303 42.1557 32.2559L42.1747 31.8296Z" fill="#939191"/>
<path d="M43.3252 31.289C43.3252 31.0332 43.3252 30.8153 43.3252 30.6258H43.7231L43.7468 31.0284C43.8264 30.8836 43.9438 30.7631 44.0864 30.6797C44.229 30.5963 44.3916 30.5531 44.5568 30.5547C44.8979 30.5547 45.4284 30.7537 45.4284 31.5969V33.0606H44.9831V31.6395C44.9831 31.2416 44.8316 30.91 44.41 30.91C44.2726 30.9137 44.1402 30.9619 44.0325 31.0473C43.9249 31.1327 43.8479 31.2508 43.8131 31.3837C43.7934 31.4514 43.7838 31.5216 43.7847 31.5921V33.0701H43.3347L43.3252 31.289Z" fill="#939191"/>
<path d="M48.2429 29.4793V32.4494C48.2429 32.6673 48.2429 32.9231 48.2429 33.0795H47.8449V32.6579C47.7647 32.8063 47.6445 32.9293 47.498 33.013C47.3515 33.0967 47.1846 33.1378 47.016 33.1316C46.8632 33.1235 46.7138 33.0843 46.5767 33.0163C46.4397 32.9484 46.318 32.8532 46.2191 32.7365C46.1201 32.6199 46.0461 32.4842 46.0015 32.3379C45.9569 32.1916 45.9426 32.0377 45.9596 31.8857C45.9392 31.7257 45.9521 31.5631 45.9975 31.4082C46.0429 31.2534 46.1198 31.1096 46.2235 30.9859C46.3272 30.8623 46.4553 30.7614 46.5998 30.6896C46.7443 30.6178 46.9022 30.5767 47.0633 30.5689C47.2083 30.559 47.3532 30.588 47.4831 30.653C47.6131 30.718 47.7233 30.8165 47.8023 30.9383V29.4746L48.2429 29.4793ZM47.7976 31.6252C47.8046 31.5607 47.8046 31.4955 47.7976 31.431C47.7642 31.2852 47.6823 31.1552 47.5652 31.0622C47.4481 30.9692 47.3029 30.9189 47.1534 30.9194C46.6797 30.9194 46.4144 31.3268 46.4144 31.8668C46.4144 32.4068 46.6654 32.7763 47.1439 32.7763C47.2965 32.7738 47.4438 32.7201 47.5623 32.6239C47.6809 32.5277 47.7637 32.3946 47.7976 32.2458C47.8051 32.1812 47.8051 32.1161 47.7976 32.0515V31.6252Z" fill="#939191"/>
<path d="M50.7342 32.4928C50.7321 32.6891 50.7432 32.8853 50.7674 33.0802H50.3695L50.3268 32.7723C50.2397 32.8889 50.1258 32.9829 49.9947 33.0464C49.8636 33.1099 49.7192 33.141 49.5737 33.137C49.4775 33.1442 49.381 33.1314 49.29 33.0994C49.1991 33.0673 49.1158 33.0167 49.0455 32.9508C48.9751 32.8849 48.9192 32.8051 48.8813 32.7165C48.8434 32.6279 48.8243 32.5323 48.8252 32.4359C48.8252 31.8391 49.351 31.517 50.2984 31.5217V31.4696C50.309 31.3937 50.3022 31.3164 50.2783 31.2436C50.2544 31.1708 50.2142 31.1044 50.1607 31.0495C50.1072 30.9946 50.0418 30.9527 49.9696 30.927C49.8974 30.9013 49.8203 30.8925 49.7442 30.9011C49.5159 30.8978 49.2918 30.962 49.1 31.0859L48.9958 30.7827C49.2444 30.6432 49.5254 30.5713 49.8105 30.5743C50.5637 30.5743 50.7579 31.0859 50.7579 31.5786L50.7342 32.4928ZM50.2984 31.8296C49.8247 31.8296 49.2563 31.9054 49.2563 32.3838C49.2514 32.4402 49.2588 32.497 49.2778 32.5503C49.2969 32.6036 49.3273 32.6522 49.3669 32.6927C49.4065 32.7332 49.4543 32.7646 49.5072 32.7849C49.56 32.8052 49.6166 32.8138 49.6731 32.8102C49.8041 32.8138 49.9328 32.7758 50.0409 32.7018C50.1489 32.6278 50.2308 32.5214 50.2747 32.398C50.2819 32.3509 50.2819 32.303 50.2747 32.2559L50.2984 31.8296Z" fill="#939191"/>
<path d="M51.454 31.3928C51.454 31.1038 51.454 30.8528 51.454 30.6254H51.8471V31.0991C51.8908 30.949 51.9807 30.8165 52.104 30.7204C52.2273 30.6243 52.3778 30.5695 52.534 30.5638C52.5748 30.5568 52.6164 30.5568 52.6572 30.5638V30.9807C52.6036 30.9756 52.5497 30.9756 52.4961 30.9807C52.3449 30.9879 52.2014 31.0494 52.0918 31.1538C51.9822 31.2581 51.9139 31.3985 51.8992 31.5491C51.8942 31.6201 51.8942 31.6913 51.8992 31.7623V33.0697H51.4492L51.454 31.3928Z" fill="#939191"/>
<path d="M55.1963 29.4793V32.4494C55.1963 32.6673 55.1963 32.9231 55.1963 33.0795H54.7983L54.7747 32.6579C54.6945 32.8074 54.5737 32.9312 54.4261 33.015C54.2786 33.0988 54.1104 33.1392 53.941 33.1316C53.7886 33.1229 53.6397 33.0832 53.5032 33.015C53.3667 32.9468 53.2456 32.8515 53.1471 32.7349C53.0487 32.6183 52.9751 32.4829 52.9308 32.3369C52.8864 32.1909 52.8724 32.0374 52.8893 31.8857C52.8689 31.726 52.8817 31.5639 52.9268 31.4093C52.9719 31.2548 53.0485 31.1112 53.1516 30.9876C53.2548 30.864 53.3823 30.763 53.5263 30.691C53.6703 30.6189 53.8276 30.5773 53.9883 30.5689C54.134 30.5586 54.2797 30.5875 54.4104 30.6524C54.5412 30.7174 54.6522 30.8161 54.732 30.9383V29.4746L55.1963 29.4793ZM54.751 31.6252C54.758 31.5607 54.758 31.4955 54.751 31.431C54.7169 31.2857 54.6347 31.1561 54.5178 31.0632C54.4009 30.9704 54.256 30.9197 54.1068 30.9194C53.6331 30.9194 53.3725 31.3268 53.3725 31.8668C53.3725 32.4068 53.6188 32.7763 54.0925 32.7763C54.2397 32.7728 54.3818 32.7214 54.4972 32.63C54.6126 32.5385 54.695 32.4119 54.732 32.2694C54.7395 32.2049 54.7395 32.1397 54.732 32.0752L54.751 31.6252Z" fill="#939191"/>
<path d="M55.8781 32.6291C56.0577 32.7361 56.2613 32.7964 56.4702 32.8044C56.7876 32.8044 56.9439 32.6433 56.9439 32.4396C56.9439 32.2359 56.8208 32.108 56.4939 31.9659C56.0486 31.8049 55.8402 31.568 55.8402 31.2696C55.8453 31.1656 55.8718 31.0639 55.9179 30.9706C55.9641 30.8773 56.029 30.7945 56.1085 30.7274C56.1881 30.6603 56.2806 30.6103 56.3803 30.5805C56.48 30.5507 56.5848 30.5418 56.6881 30.5543C56.8974 30.5474 57.1043 30.6 57.285 30.7059L57.1808 31.0233C57.0273 30.9321 56.8524 30.8831 56.6739 30.8812C56.4134 30.8812 56.2713 31.0327 56.2713 31.2175C56.2713 31.4022 56.4134 31.5159 56.745 31.6391C57.1666 31.7954 57.3892 32.0086 57.3892 32.378C57.3892 32.7475 57.0529 33.117 56.4797 33.117C56.2384 33.1198 56.0004 33.0611 55.7881 32.9465L55.8781 32.6291Z" fill="#939191"/>
<path d="M61.4212 32.976C61.1344 33.0931 60.826 33.148 60.5164 33.1371C60.2874 33.151 60.0582 33.1153 59.8443 33.0323C59.6304 32.9494 59.437 32.8212 59.2773 32.6565C59.1176 32.4919 58.9953 32.2946 58.919 32.0783C58.8426 31.862 58.8138 31.6318 58.8347 31.4033C58.8204 31.1646 58.8566 30.9256 58.9412 30.7019C59.0257 30.4782 59.1566 30.2749 59.3252 30.1053C59.4939 29.9358 59.6965 29.8038 59.9197 29.7181C60.143 29.6324 60.3818 29.5949 60.6206 29.608C60.8986 29.5966 61.1756 29.6484 61.4306 29.7596L61.3169 30.1196C61.1032 30.0214 60.87 29.9728 60.6348 29.9775C60.4493 29.9673 60.2637 29.9977 60.0912 30.0667C59.9187 30.1358 59.7633 30.2417 59.6361 30.3771C59.5088 30.5125 59.4127 30.6741 59.3544 30.8505C59.2962 31.027 59.2773 31.2141 59.299 31.3986C59.2785 31.5783 59.2977 31.7602 59.3552 31.9317C59.4127 32.1031 59.5071 32.2599 59.6318 32.3908C59.7565 32.5218 59.9084 32.6239 60.0767 32.6898C60.2451 32.7557 60.4259 32.7839 60.6064 32.7723C60.8568 32.7762 61.1053 32.7278 61.3359 32.6302L61.4212 32.976Z" fill="#939191"/>
<path d="M62.8989 33.1373C62.7366 33.1391 62.5757 33.1071 62.4264 33.0433C62.2771 32.9795 62.1427 32.8854 62.0318 32.7669C61.9208 32.6484 61.8358 32.5081 61.782 32.3549C61.7282 32.2018 61.7069 32.0391 61.7194 31.8772C61.7047 31.7097 61.7255 31.541 61.7804 31.382C61.8352 31.223 61.9229 31.0773 62.0377 30.9545C62.1525 30.8316 62.2919 30.7343 62.4468 30.6688C62.6017 30.6034 62.7687 30.5713 62.9368 30.5746C63.0993 30.5706 63.2608 30.601 63.4108 30.6637C63.5608 30.7264 63.6958 30.8201 63.8071 30.9386C63.9185 31.057 64.0035 31.1976 64.0568 31.3512C64.1101 31.5048 64.1304 31.6679 64.1163 31.8299C64.1316 31.9974 64.1115 32.1662 64.0573 32.3254C64.003 32.4846 63.9159 32.6306 63.8015 32.754C63.6871 32.8773 63.5481 32.9751 63.3934 33.0412C63.2387 33.1072 63.0718 33.1399 62.9037 33.1373H62.8989ZM62.8989 32.8057C63.3252 32.8057 63.6426 32.403 63.6426 31.8583C63.6426 31.4414 63.4342 30.9109 62.9084 30.9109C62.3826 30.9109 62.1552 31.3846 62.1552 31.8583C62.1552 32.3983 62.4631 32.8057 62.8942 32.8057H62.8989Z" fill="#939191"/>
<path d="M66.7171 32.4109C66.7171 32.6667 66.7171 32.8846 66.7171 33.0788H66.3239L66.2955 32.6809C66.2128 32.8241 66.0941 32.9432 65.9512 33.0263C65.8083 33.1094 65.6461 33.1536 65.4807 33.1546C65.097 33.1546 64.6328 32.9367 64.6328 32.0793V30.6582H65.0828V32.013C65.0828 32.4867 65.2249 32.7993 65.6276 32.7993C65.7555 32.7972 65.8798 32.7569 65.9845 32.6834C66.0892 32.6099 66.1695 32.5068 66.215 32.3872C66.245 32.3153 66.2595 32.2378 66.2576 32.1598V30.6582H66.7171V32.4109Z" fill="#939191"/>
<path d="M67.4746 31.289C67.4746 31.0332 67.4746 30.8153 67.4746 30.6258H67.8678L67.8962 31.0285C67.9762 30.883 68.0943 30.762 68.2378 30.6786C68.3814 30.5951 68.5449 30.5523 68.711 30.5548C69.0473 30.5548 69.5778 30.7537 69.5778 31.5969V33.0607H69.1326V31.6396C69.1326 31.2417 68.981 30.9101 68.5594 30.9101C68.4222 30.9145 68.2902 30.963 68.1827 31.0483C68.0752 31.1336 67.998 31.2512 67.9625 31.3838C67.9428 31.4515 67.9332 31.5217 67.9341 31.5922V33.0701H67.4841L67.4746 31.289Z" fill="#939191"/>
<path d="M72.0409 32.995C71.8186 33.0924 71.5779 33.1409 71.3351 33.1371C71.1695 33.1457 71.0039 33.1188 70.8495 33.0583C70.6951 32.9978 70.5554 32.9051 70.4397 32.7862C70.324 32.6674 70.235 32.5253 70.1787 32.3693C70.1223 32.2133 70.0999 32.0471 70.113 31.8818C70.1047 31.7067 70.1334 31.5318 70.197 31.3685C70.2607 31.2052 70.358 31.0571 70.4827 30.9338C70.6073 30.8105 70.7564 30.7148 70.9204 30.6529C71.0844 30.591 71.2596 30.5642 71.4346 30.5744C71.6469 30.5695 71.8576 30.6132 72.0504 30.7023L71.9509 31.0433C71.7907 30.9638 71.6134 30.9248 71.4346 30.9296C71.2253 30.9773 71.0384 31.0947 70.9045 31.2625C70.7706 31.4304 70.6977 31.6387 70.6977 31.8533C70.6977 32.068 70.7706 32.2763 70.9045 32.4442C71.0384 32.612 71.2253 32.7294 71.4346 32.7771C71.6221 32.7777 71.8077 32.739 71.9793 32.6634L72.0409 32.995Z" fill="#939191"/>
<path d="M72.7755 30.1767C72.7058 30.1678 72.6418 30.1337 72.5954 30.081C72.549 30.0282 72.5234 29.9604 72.5234 29.8902C72.5234 29.8199 72.549 29.7521 72.5954 29.6993C72.6418 29.6466 72.7058 29.6125 72.7755 29.6036C72.8128 29.6029 72.8498 29.6098 72.8843 29.6239C72.9188 29.6381 72.9501 29.659 72.9763 29.6856C73.0024 29.7122 73.0229 29.7439 73.0364 29.7786C73.0499 29.8134 73.0563 29.8505 73.055 29.8878C73.0563 29.9261 73.0497 29.9642 73.0357 29.9999C73.0216 30.0356 73.0004 30.0679 72.9733 30.095C72.9462 30.1221 72.9138 30.1434 72.8781 30.1574C72.8425 30.1715 72.8043 30.1781 72.766 30.1767H72.7755ZM72.5623 33.0805V30.6268H73.036V33.0805H72.5623Z" fill="#939191"/>
<path d="M73.751 29.4805H74.1963V33.0806H73.751V29.4805Z" fill="#939191"/>
<path d="M34.4151 31.4463L8.16266 39.7029L0.50293 18.8791L28.0628 17.3301L34.4151 31.4463Z" fill="#939191"/>
<path d="M14.567 27.2767C14.5768 27.7646 14.454 28.2459 14.2117 28.6694C13.971 29.0802 13.6325 29.4252 13.2264 29.6737C12.7545 29.9602 12.237 30.1637 11.6963 30.2753C11.0455 30.4135 10.3816 30.4803 9.71628 30.4742H9.181V33.1554H5.76562V24.2166H9.76365C10.9834 24.1521 12.1982 24.4137 13.2832 24.9746C13.6907 25.2003 14.0269 25.5356 14.2537 25.9424C14.4806 26.3492 14.5891 26.8114 14.567 27.2767ZM11.289 27.3146C11.289 26.5378 10.7111 26.1493 9.5647 26.1493H9.14784V28.5463H9.53154C9.98541 28.5739 10.4376 28.4703 10.8342 28.2478C10.9862 28.1465 11.1087 28.0068 11.1894 27.843C11.27 27.6791 11.306 27.4969 11.2937 27.3146H11.289Z" fill="white"/>
<path d="M22.9992 33.1502C22.4115 33.2561 21.8152 33.3069 21.2181 33.3018C20.3637 33.3134 19.5119 33.2034 18.6885 32.9749C18.0043 32.7917 17.3612 32.4798 16.7937 32.0559C16.2931 31.6736 15.8918 31.1764 15.6237 30.6064C15.351 30.0124 15.2135 29.3652 15.2211 28.7116C15.2125 28.0553 15.3586 27.4062 15.6474 26.8168C15.938 26.2463 16.3504 25.7467 16.8553 25.3531C17.4098 24.9242 18.0396 24.6029 18.7122 24.4057C19.4805 24.1764 20.279 24.0646 21.0807 24.0741C21.6902 24.0561 22.2999 24.1022 22.8997 24.2115C23.2369 24.2751 23.5669 24.3719 23.885 24.5004V26.8973C23.5236 26.7002 23.1426 26.5414 22.7481 26.4236C22.3092 26.2981 21.8546 26.2359 21.3981 26.2389C20.7092 26.2051 20.0328 26.4317 19.5033 26.8736C19.2555 27.1034 19.0619 27.3854 18.9366 27.6992C18.8112 28.013 18.7573 28.3507 18.7785 28.6879C18.7704 29.056 18.8483 29.421 19.0059 29.7538C19.1497 30.052 19.3585 30.3142 19.617 30.5211C19.8854 30.7357 20.1926 30.8965 20.5218 30.9948C20.8815 31.1015 21.255 31.1542 21.6302 31.1512C22.0334 31.1526 22.4355 31.1081 22.8287 31.0185C23.2539 30.9238 23.6718 30.7988 24.0792 30.6443V32.8849C23.7254 32.997 23.3646 33.0856 22.9992 33.1502Z" fill="white"/>
<path d="M25.5049 33.1555V24.2168H28.9345V33.1555H25.5049Z" fill="white"/>
<path d="M29.2945 21.4173C29.3089 21.6843 29.2622 21.9512 29.158 22.1974C29.0537 22.4437 28.8947 22.6629 28.6929 22.8384C28.2732 23.1736 27.752 23.3561 27.2149 23.3561C26.6778 23.3561 26.1567 23.1736 25.737 22.8384C25.5352 22.6629 25.3761 22.4437 25.2718 22.1974C25.1676 21.9512 25.1209 21.6843 25.1354 21.4173C25.1237 21.1506 25.1716 20.8847 25.2757 20.6388C25.3798 20.393 25.5374 20.1735 25.737 19.9962C26.1567 19.6611 26.6778 19.4785 27.2149 19.4785C27.752 19.4785 28.2732 19.6611 28.6929 19.9962C28.8925 20.1735 29.0501 20.393 29.1541 20.6388C29.2582 20.8847 29.3061 21.1506 29.2945 21.4173Z" fill="white"/>
<path d="M71.8188 24.8889H71.4209V24.6094H72.553V24.8889H72.1504V26.0826H71.8188V24.8889Z" fill="#939191"/>
<path d="M73.9639 25.5197C73.9639 25.3397 73.9639 25.1313 73.9639 24.9134C73.9117 25.0981 73.8549 25.3113 73.7981 25.4818L73.6181 26.0597H73.348L73.1917 25.4913C73.1396 25.316 73.0922 25.1076 73.0544 24.9134C73.0544 25.1123 73.0544 25.3397 73.0259 25.5244L72.9975 26.0834H72.6943L72.7843 24.6102H73.2296L73.3717 25.0839C73.4191 25.2497 73.4665 25.4344 73.4996 25.6097C73.5423 25.4392 73.5896 25.245 73.6417 25.0792L73.7981 24.6055H74.2339L74.3144 26.0787H73.9875L73.9639 25.5197Z" fill="#939191"/>
<path d="M4.14551 44.7511C4.46839 44.702 4.79478 44.6798 5.12133 44.6847C5.4684 44.6564 5.81466 44.7484 6.10188 44.9453C6.21043 45.0337 6.2972 45.1459 6.35552 45.2732C6.41383 45.4005 6.44212 45.5395 6.43821 45.6795C6.4454 45.819 6.42341 45.9584 6.37366 46.0889C6.3239 46.2194 6.24748 46.3381 6.14926 46.4374C5.85592 46.6755 5.48427 46.7954 5.10712 46.7737C5.02521 46.7819 4.9427 46.7819 4.86079 46.7737V47.9011H4.14551V44.7511ZM4.86079 46.2006C4.94108 46.2094 5.02209 46.2094 5.10238 46.2006C5.48607 46.2006 5.72293 46.0064 5.72293 45.6842C5.72293 45.3621 5.52397 45.2105 5.15923 45.2105C5.05917 45.207 4.95903 45.2149 4.86079 45.2342V46.2006Z" fill="#939191"/>
<path d="M7.55116 47.0822L7.32852 47.9017H6.58008L7.5559 44.709H8.5033L9.49807 47.9017H8.7212L8.47488 47.0822H7.55116ZM8.36119 46.5422L8.16223 45.8648C8.11013 45.6753 8.05328 45.4337 8.00591 45.249C7.96328 45.4385 7.91117 45.6801 7.8638 45.8648L7.66959 46.5422H8.36119Z" fill="#939191"/>
<path d="M10.029 44.7563C10.3423 44.706 10.6592 44.6823 10.9764 44.6852C11.3398 44.6499 11.7042 44.7402 12.0091 44.941C12.1083 45.0206 12.1871 45.1227 12.239 45.2389C12.2909 45.355 12.3144 45.4819 12.3075 45.6089C12.304 45.781 12.2482 45.948 12.1475 46.0876C12.0468 46.2272 11.906 46.3329 11.7438 46.3905C11.8569 46.4481 11.9547 46.5319 12.0288 46.6349C12.103 46.7379 12.1514 46.8571 12.1701 46.9827C12.2696 47.3474 12.3643 47.7643 12.4259 47.8874H11.687C11.5912 47.6469 11.5183 47.3979 11.4691 47.1437C11.379 46.7411 11.2417 46.6369 10.948 46.6321H10.7348V47.9016H10.0195L10.029 44.7563ZM10.7443 46.1253H11.0285C11.3838 46.1253 11.597 45.9453 11.597 45.6516C11.597 45.3579 11.398 45.211 11.0664 45.211C10.9594 45.1988 10.8513 45.1988 10.7443 45.211V46.1253Z" fill="#939191"/>
<path d="M13.624 45.3153H12.7666V44.709H15.2156V45.3153H14.344V47.9017H13.624V45.3153Z" fill="#939191"/>
<path d="M16.4476 44.709V47.9017H15.7275V44.709H16.4476Z" fill="#939191"/>
<path d="M19.5651 47.8164C19.3052 47.9152 19.0283 47.9619 18.7503 47.9538C18.5313 47.9754 18.3101 47.9493 18.1022 47.8771C17.8942 47.805 17.7044 47.6885 17.5459 47.5358C17.3873 47.3831 17.2638 47.1978 17.1839 46.9927C17.1039 46.7876 17.0695 46.5676 17.0829 46.3479C17.0722 46.1189 17.1103 45.8903 17.1945 45.6771C17.2787 45.4639 17.4073 45.271 17.5716 45.1111C17.7359 44.9513 17.9323 44.8282 18.1477 44.7498C18.3632 44.6715 18.5928 44.6398 18.8214 44.6568C19.0906 44.6477 19.3587 44.6962 19.6077 44.7989L19.4561 45.3674C19.2643 45.2868 19.0579 45.2465 18.8498 45.2489C18.5709 45.2489 18.3034 45.3597 18.1062 45.557C17.909 45.7542 17.7982 46.0216 17.7982 46.3005C17.7982 46.5795 17.909 46.8469 18.1062 47.0442C18.3034 47.2414 18.5709 47.3522 18.8498 47.3522C19.0565 47.3542 19.2619 47.3189 19.4561 47.2479L19.5651 47.8164Z" fill="#939191"/>
<path d="M20.8862 44.709V47.9017H20.1709V44.709H20.8862Z" fill="#939191"/>
<path d="M21.6729 44.7511C21.9957 44.702 22.3221 44.6798 22.6487 44.6847C22.9957 44.6564 23.342 44.7484 23.6292 44.9453C23.7378 45.0337 23.8246 45.1459 23.8829 45.2732C23.9412 45.4005 23.9695 45.5395 23.9656 45.6795C23.9727 45.819 23.9508 45.9584 23.901 46.0889C23.8513 46.2194 23.7748 46.3381 23.6766 46.4374C23.3833 46.6755 23.0116 46.7954 22.6345 46.7737C22.5526 46.7819 22.47 46.7819 22.3881 46.7737V47.9011H21.6729V44.7511ZM22.3881 46.2006C22.4684 46.2094 22.5494 46.2094 22.6297 46.2006C23.0134 46.2006 23.2503 46.0064 23.2503 45.6842C23.2503 45.3621 23.0513 45.2105 22.6866 45.2105C22.5865 45.207 22.4864 45.2149 22.3881 45.2342V46.2006Z" fill="#939191"/>
<path d="M25.0785 47.0822L24.8559 47.9017H24.1074L25.0832 44.709H26.0306L27.0207 47.9017H26.2438L26.0022 47.0822H25.0785ZM25.8885 46.5422L25.6896 45.8648C25.6375 45.6753 25.5806 45.4337 25.5333 45.249C25.4906 45.4385 25.4385 45.6801 25.3912 45.8648L25.1969 46.5422H25.8885Z" fill="#939191"/>
<path d="M27.911 45.3153H27.0488V44.709H29.5026V45.3153H28.631V47.9017H27.911V45.3153Z" fill="#939191"/>
<path d="M30.7151 44.709V47.9017H29.9951V44.709H30.7151Z" fill="#939191"/>
<path d="M31.5156 47.9025V44.7098H32.3588L33.022 45.8798C33.2217 46.2273 33.4004 46.5863 33.5573 46.9551C33.5157 46.5111 33.4968 46.0652 33.5004 45.6193V44.6719H34.1636V47.9025H33.4057L32.7236 46.6709C32.5181 46.3056 32.333 45.9293 32.1693 45.5435C32.193 45.9698 32.2025 46.4198 32.2025 46.9646V47.912L31.5156 47.9025Z" fill="#939191"/>
<path d="M37.6027 47.7556C37.2586 47.8694 36.8992 47.9301 36.5369 47.9356C36.065 47.9696 35.5987 47.8165 35.2389 47.5093C35.0896 47.3552 34.9729 47.1725 34.8956 46.9724C34.8183 46.7722 34.782 46.5585 34.7889 46.344C34.7889 45.2829 35.5658 44.6766 36.6127 44.6766C36.915 44.6686 37.216 44.7201 37.4985 44.8282L37.3469 45.4108C37.1142 45.3095 36.8615 45.2626 36.6079 45.2735C36.343 45.2834 36.0918 45.394 35.9056 45.5826C35.7193 45.7712 35.6119 46.0237 35.6052 46.2888C35.5986 46.5538 35.6932 46.8114 35.8698 47.0091C36.0464 47.2068 36.2917 47.3298 36.5558 47.353C36.6742 47.3576 36.7925 47.3432 36.9064 47.3104V46.6377H36.4327V46.074H37.6216L37.6027 47.7556Z" fill="#939191"/>
<path d="M40.7155 47.9536C40.5071 47.9557 40.3006 47.9142 40.1092 47.8316C39.9178 47.7491 39.7458 47.6273 39.6043 47.4743C39.4629 47.3212 39.355 47.1402 39.2878 46.9429C39.2205 46.7456 39.1954 46.5364 39.2139 46.3288C39.1969 46.1149 39.2244 45.8997 39.2949 45.697C39.3654 45.4943 39.4772 45.3084 39.6233 45.1512C39.7693 44.994 39.9465 44.8689 40.1435 44.7837C40.3405 44.6986 40.553 44.6553 40.7677 44.6566C40.9766 44.6519 41.1842 44.6912 41.377 44.772C41.5697 44.8529 41.7432 44.9734 41.8862 45.1258C42.0293 45.2782 42.1386 45.4591 42.207 45.6566C42.2755 45.854 42.3015 46.0637 42.2835 46.272C42.2835 47.3236 41.6535 47.9536 40.7203 47.9536H40.7155ZM40.7487 47.3804C41.2224 47.3804 41.5161 46.9067 41.5161 46.2956C41.5161 45.6846 41.2461 45.2298 40.7487 45.2298C40.2513 45.2298 39.9718 45.7035 39.9718 46.3099C39.9718 46.9162 40.2608 47.3804 40.744 47.3804H40.7487Z" fill="#939191"/>
<path d="M42.9229 44.7563C43.2361 44.7062 43.553 44.6824 43.8703 44.6852C44.2336 44.6499 44.5981 44.7402 44.9029 44.941C45.0022 45.0206 45.081 45.1227 45.1329 45.2389C45.1848 45.355 45.2083 45.4819 45.2013 45.6089C45.1978 45.781 45.142 45.948 45.0413 46.0876C44.9406 46.2272 44.7998 46.3329 44.6377 46.3905C44.7508 46.4481 44.8485 46.5319 44.9227 46.6349C44.9968 46.7379 45.0453 46.8571 45.064 46.9827C45.1635 47.3474 45.2582 47.7643 45.3198 47.8874H44.595C44.4993 47.6469 44.4263 47.3979 44.3771 47.1437C44.2871 46.7411 44.1497 46.6369 43.8513 46.6321H43.6381V47.9016H42.9229V44.7563ZM43.6381 46.1253H43.9224C44.2824 46.1253 44.4955 45.9453 44.4955 45.6516C44.4955 45.3579 44.2966 45.211 43.965 45.211C43.8564 45.1985 43.7467 45.1985 43.6381 45.211V46.1253Z" fill="#939191"/>
<path d="M48.5223 47.7556C48.1782 47.8694 47.8188 47.9301 47.4565 47.9356C46.9846 47.9696 46.5183 47.8165 46.1585 47.5093C46.005 47.3571 45.8838 47.1754 45.8024 46.9751C45.721 46.7749 45.681 46.5602 45.6848 46.344C45.6848 45.2829 46.4617 44.6766 47.5086 44.6766C47.8109 44.6686 48.1119 44.7201 48.3944 44.8282L48.2428 45.4108C48.0101 45.3095 47.7574 45.2626 47.5038 45.2735C47.2389 45.2834 46.9877 45.394 46.8015 45.5826C46.6152 45.7712 46.5078 46.0237 46.5011 46.2888C46.4945 46.5538 46.5891 46.8114 46.7657 47.0091C46.9423 47.2068 47.1876 47.3298 47.4517 47.353C47.5701 47.3576 47.6884 47.3432 47.8023 47.3104V46.6377H47.3286V46.074H48.5175L48.5223 47.7556Z" fill="#939191"/>
<path d="M49.9615 47.0822L49.7436 47.9017H48.9951L49.9709 44.709H50.9183L51.9131 47.9017H51.1362L50.8899 47.0822H49.9615ZM50.7715 46.5422L50.5725 45.8648C50.5204 45.6753 50.4683 45.4337 50.4162 45.249C50.3736 45.4385 50.3262 45.6801 50.2788 45.8648L50.0846 46.5422H50.7715Z" fill="#939191"/>
<path d="M52.4395 47.9011V44.7084H53.2827L53.9458 45.8784C54.1413 46.2324 54.3153 46.5978 54.4669 46.9727C54.4254 46.5287 54.4064 46.0828 54.41 45.6369V44.6895H55.0732V47.9011H54.3153L53.6332 46.6695C53.4277 46.3043 53.2427 45.9279 53.0789 45.5421C53.1026 45.9684 53.1121 46.4185 53.1121 46.9632V47.9106L52.4395 47.9011Z" fill="#939191"/>
<path d="M56.5941 44.709V47.9017H55.874V44.709H56.5941Z" fill="#939191"/>
<path d="M57.1527 47.5127L58.6733 45.3195H57.2901V44.7227H59.6112V45.1395L58.1238 47.2996H59.6112V47.9012H57.1338L57.1527 47.5127Z" fill="#939191"/>
<path d="M61.0326 47.0822L60.81 47.9017H60.0615L61.0373 44.709H61.9847L62.9795 47.9017H62.2026L61.9563 47.0822H61.0326ZM61.8379 46.5422L61.6437 45.8648C61.5868 45.6753 61.53 45.4337 61.4873 45.249C61.44 45.4385 61.3879 45.6801 61.3452 45.8648L61.151 46.5422H61.8379Z" fill="#939191"/>
<path d="M63.8748 45.3153H63.0127V44.709H65.4665V45.3153H64.5949V47.9017H63.8748V45.3153Z" fill="#939191"/>
<path d="M66.6839 44.709V47.9017H65.9639V44.709H66.6839Z" fill="#939191"/>
<path d="M68.8151 47.9536C68.6067 47.9557 68.4002 47.9142 68.2088 47.8316C68.0174 47.7491 67.8454 47.6273 67.7039 47.4743C67.5625 47.3212 67.4546 47.1402 67.3874 46.9429C67.3201 46.7456 67.295 46.5364 67.3135 46.3288C67.2965 46.1149 67.324 45.8997 67.3945 45.697C67.465 45.4943 67.5768 45.3084 67.7229 45.1512C67.869 44.994 68.0461 44.8689 68.2431 44.7837C68.4401 44.6986 68.6527 44.6553 68.8673 44.6566C69.0762 44.6519 69.2838 44.6912 69.4766 44.772C69.6693 44.8529 69.8428 44.9734 69.9859 45.1258C70.1289 45.2782 70.2382 45.4591 70.3066 45.6566C70.3751 45.854 70.4011 46.0637 70.3831 46.272C70.3831 47.3236 69.7531 47.9536 68.8199 47.9536H68.8151ZM68.8483 47.3804C69.322 47.3804 69.6157 46.9067 69.6157 46.2956C69.6157 45.6846 69.3457 45.2298 68.8483 45.2298C68.3509 45.2298 68.0714 45.7035 68.0714 46.3099C68.0714 46.9162 68.3604 47.3804 68.8436 47.3804H68.8483Z" fill="#939191"/>
<path d="M71.0176 47.9011V44.7084H71.8608L72.524 45.8784C72.7195 46.2324 72.8935 46.5978 73.045 46.9727C73.0035 46.5287 72.9845 46.0828 72.9882 45.6369V44.6895H73.6514V47.9011H72.8934L72.2113 46.6695C72.0058 46.3043 71.8208 45.9279 71.6571 45.5421C71.6571 45.9684 71.6902 46.4185 71.6902 46.9632V47.9106L71.0176 47.9011Z" fill="#939191"/>
</svg>
