<svg width="118" height="32" viewBox="0 0 118 32" fill="none" xmlns="http://www.w3.org/2000/svg">
<path d="M26.5683 10.2076H18.5561C18.5561 8.89269 18.4015 8.01049 18.0937 7.561C17.6168 6.89669 16.3011 6.56377 14.1474 6.56377C12.0554 6.56377 10.6689 6.75499 9.99238 7.13819C9.31588 7.52291 8.97686 8.35864 8.97686 9.64538C8.97686 10.8102 9.27702 11.5781 9.87811 11.9453C10.3085 12.2067 10.8776 12.3598 11.5861 12.4055L13.202 12.5198C16.6653 12.7491 18.8281 12.9114 19.6905 13.0035C22.4293 13.2793 24.4146 14.0076 25.6465 15.1877C26.6156 16.1088 27.1938 17.3125 27.3782 18.798C27.4863 19.6871 27.5397 20.6935 27.5397 21.8111C27.5397 24.3876 27.2936 26.2739 26.8022 27.4692C25.9101 29.6633 23.9057 31.0491 20.7875 31.6311C19.481 31.8772 17.4827 31.9998 14.7942 31.9998C10.307 31.9998 7.18046 31.7332 5.41453 31.1961C3.24788 30.5386 1.81868 29.2062 1.1277 27.2003C0.742216 26.0834 0.551758 24.223 0.551758 21.6191H8.56395C8.56395 21.9094 8.56471 22.1318 8.56471 22.2849C8.56471 23.6745 8.96391 24.5674 9.76155 24.9658C10.3139 25.2401 10.9805 25.3841 11.7644 25.4016H14.7104C16.2135 25.4016 17.1727 25.3246 17.5863 25.17C18.323 24.8805 18.8068 24.4143 19.0376 23.769C19.1603 23.3713 19.2212 22.8578 19.2212 22.2286C19.2212 20.8199 18.707 19.9629 17.68 19.6551C17.2953 19.534 15.5096 19.3641 12.3205 19.15C9.75926 18.9672 7.98038 18.7912 6.98467 18.6205C4.36168 18.1299 2.61328 17.1205 1.74098 15.5884C0.973813 14.2872 0.590611 12.3179 0.590611 9.68271C0.590611 7.6768 0.79783 6.06781 1.21227 4.85802C1.6267 3.64747 2.29483 2.7287 3.21665 2.10019C4.56738 1.13495 6.29597 0.568907 8.39939 0.399781C10.1501 0.246652 12.092 0.168945 14.2282 0.168945C17.5909 0.168945 19.9876 0.362451 21.4161 0.745652C24.903 1.68271 26.646 4.30646 26.646 8.61843C26.646 8.97192 26.6201 9.50063 26.5683 10.2076Z" fill="#939191"/>
<path d="M61.8018 32V0H74.3545H76.3246H77.8475C80.0484 0 81.7275 0.179031 82.8817 0.538615C85.5206 1.3652 87.2911 3.05876 88.1985 5.61699C88.6662 6.9601 88.9009 8.982 88.9009 11.6819C88.9009 14.9281 88.6411 17.2601 88.1269 18.6809C87.0976 21.489 84.9797 23.1071 81.7808 23.5261C81.4045 23.5894 79.8039 23.645 76.9782 23.6907L75.549 23.7379H70.4143V32H61.8018ZM70.4143 16.3146H75.7829C77.4856 16.2537 78.5209 16.1227 78.8935 15.9177C79.4024 15.6381 79.7444 15.0774 79.9143 14.2371C80.0233 13.6779 80.0773 12.846 80.0773 11.7414C80.0773 10.3876 79.9692 9.38425 79.752 8.72907C79.4427 7.81107 78.7007 7.25264 77.526 7.04923C77.2929 7.01876 76.7367 7.002 75.8553 7.002H70.4143V16.3146Z" fill="#939191"/>
<path d="M107.285 26.4699H95.7702L94.2229 32H85.3125L94.9276 0H107.919L117.652 32H108.929L107.285 26.4699ZM105.575 20.2358L101.54 6.36435L97.6237 20.2358H105.575Z" fill="#939191"/>
<path d="M49.9154 4.50168C53.467 4.50168 56.6378 6.1381 58.7214 8.7009L60.578 4.72033C57.6746 1.97621 53.723 0.28418 49.3646 0.28418C42.5782 0.28418 36.773 4.38284 34.3907 10.185H30.7705L28.6328 14.7674H33.2899C33.2548 15.1925 33.232 15.6176 33.232 16.0518C33.232 16.5767 33.2594 17.0963 33.3112 17.609H30.9709L28.8339 22.1929H34.502C36.952 27.848 42.6848 31.8179 49.3646 31.8179C52.7311 31.8179 55.8546 30.8093 58.441 29.086V23.4683C56.3582 25.8398 53.3116 27.3384 49.9154 27.3384C45.9454 27.3384 42.4532 25.2913 40.4199 22.1929H52.2877L54.4254 17.609H38.6738C38.5922 17.0574 38.5488 16.4937 38.5488 15.9193C38.5488 15.5307 38.5686 15.1468 38.6067 14.7674H55.7502L57.8872 10.185H40.0885C42.0571 6.78794 45.7199 4.50168 49.9154 4.50168Z" fill="#939191"/>
<path d="M49.9151 4.63922C53.3 4.63922 56.4707 6.15222 58.6145 8.78816L58.7532 8.95881L58.8469 8.75998L60.7027 4.7794L60.7438 4.68874L60.673 4.62018C57.6211 1.73588 53.6047 0.147461 49.3643 0.147461C46.0526 0.147461 42.8667 1.11499 40.1492 2.94567C37.4957 4.73293 35.4601 7.21879 34.2641 10.1328L34.3905 10.0475H30.7703H30.6819L30.6454 10.1267L28.5084 14.7099L28.417 14.9057H28.6326H33.2897L33.1525 14.7564C33.1137 15.2325 33.0946 15.6553 33.0946 16.0522C33.0946 16.5665 33.1213 17.0959 33.1739 17.6231L33.311 17.4723H30.9707H30.8838L30.8472 17.5515L28.7088 22.1347L28.6181 22.3305H28.8337H34.5017L34.3753 22.2475C36.9305 28.1448 42.8141 31.9555 49.3643 31.9555C52.6478 31.9555 55.8117 31.004 58.517 29.2015L58.5772 29.1611V29.0864V23.4687V23.1038L58.3372 23.378C56.2033 25.8075 53.1339 27.2001 49.9151 27.2001C46.1288 27.2001 42.6221 25.2994 40.5339 22.1172L40.4197 22.3305H52.2875H52.3759L52.4124 22.252L54.5501 17.6673L54.6415 17.4723H54.4252H38.6735L38.8099 17.5896C38.7284 17.0342 38.6865 16.4735 38.6865 15.9197C38.6865 15.5426 38.7055 15.1601 38.7436 14.7815L38.6065 14.9057H55.75H55.8384L55.875 14.8264L58.0119 10.2433L58.1041 10.0475H57.8869H40.0883L40.2071 10.2539C42.2138 6.79064 45.9346 4.63922 49.9151 4.63922ZM40.0883 10.3225H57.8869L57.762 10.1267L55.6258 14.7099L55.75 14.6307H38.6065H38.4823L38.4686 14.7548C38.4305 15.1418 38.4115 15.5342 38.4115 15.9197C38.4115 16.4865 38.4541 17.0624 38.5372 17.63L38.5555 17.7473H38.6735H54.4252L54.301 17.5515L52.1641 22.1347L52.2875 22.0555H40.4197H40.1644L40.3046 22.2673C42.4431 25.5294 46.0366 27.4744 49.9151 27.4744C53.2123 27.4744 56.358 26.0482 58.5444 23.5593L58.3029 23.4687V29.0864L58.3639 28.9729C55.7043 30.7442 52.593 31.6805 49.3643 31.6805C42.923 31.6805 37.1392 27.9345 34.6282 22.1378L34.5916 22.0555H34.5017H28.8337L28.9594 22.252L31.0956 17.6673L30.9707 17.7473H33.311H33.4626L33.4481 17.5957C33.3963 17.0777 33.3689 16.5573 33.3689 16.0522C33.3689 15.6637 33.3879 15.247 33.4268 14.7792L33.439 14.6307H33.2897H28.6326L28.7568 14.8264L30.8945 10.2433L30.7703 10.3225H34.3905H34.4827L34.517 10.2372C35.694 7.37344 37.6946 4.93101 40.3031 3.17346C42.9741 1.37477 46.1083 0.423244 49.3643 0.423244C53.5346 0.423244 57.4824 1.98424 60.4833 4.82054L60.4528 4.66208L58.5977 8.64342L58.8286 8.61446C56.6307 5.91377 53.383 4.3642 49.9151 4.3642C45.8355 4.3642 42.0256 6.56818 39.9687 10.116L39.849 10.3225H40.0883Z" fill="#939191"/>
</svg>
