<svg width="50" height="50" viewBox="0 0 50 50" fill="none" xmlns="http://www.w3.org/2000/svg">
<rect y="0.000488281" width="50" height="50" rx="10" fill="#F5F6FA"/>
<path d="M14.3021 25.6461C16.3481 24.5574 18.6321 23.6488 20.7661 22.7356C24.4374 21.2397 28.1233 19.7698 31.8464 18.4014C32.5708 18.1682 33.8724 17.9402 34 18.9771C33.9301 20.4449 33.6426 21.9041 33.4454 23.3633C32.945 26.5722 32.3665 29.7701 31.8024 32.9685C31.608 34.0338 30.2264 34.5853 29.3424 33.9035C27.2178 32.5174 25.077 31.1446 22.9796 29.7263C22.2925 29.052 22.9296 28.0835 23.5432 27.602C25.2931 25.9362 27.1488 24.521 28.8072 22.7692C29.2545 21.7257 27.9327 22.6051 27.4968 22.8746C25.1012 24.4692 22.7643 26.1611 20.2387 27.5625C18.9486 28.2485 17.445 27.6623 16.1555 27.2795C14.9993 26.8171 13.305 26.3512 14.302 25.6462L14.3021 25.6461Z" fill="#AAB0B7"/>
</svg>
