<svg width="32" height="32" viewBox="0 0 32 32" fill="none" xmlns="http://www.w3.org/2000/svg">
<circle cx="16" cy="16" r="16" fill="#1A6AF4" fill-opacity="0.08"/>
<path d="M14.3799 19.8101C14.2814 19.8102 14.1838 19.7908 14.0928 19.7531C14.0018 19.7154 13.9192 19.6601 13.8496 19.5903L10.9698 16.7105C10.8995 16.641 10.8436 16.5583 10.8054 16.4671C10.7672 16.376 10.7474 16.2781 10.7471 16.1793C10.7468 16.0805 10.766 15.9825 10.8037 15.8912C10.8414 15.7998 10.8968 15.7168 10.9667 15.6469C11.0366 15.577 11.1196 15.5216 11.211 15.4839C11.3023 15.4462 11.4003 15.427 11.4991 15.4272C11.5979 15.4275 11.6958 15.4473 11.7869 15.4855C11.8781 15.5238 11.9608 15.5796 12.0303 15.6499L14.3799 17.9995L19.9698 12.4097C20.1105 12.2695 20.3011 12.1909 20.4997 12.1911C20.6983 12.1913 20.8888 12.2703 21.0292 12.4108C21.1697 12.5513 21.2486 12.7417 21.2488 12.9403C21.249 13.1389 21.1704 13.3295 21.0303 13.4702L14.9101 19.5904C14.8406 19.6601 14.7579 19.7154 14.6669 19.7531C14.5759 19.7908 14.4784 19.8102 14.3799 19.8101Z" fill="#1A6AF4"/>
</svg>
