<svg width="50" height="50" viewBox="0 0 50 50" fill="none" xmlns="http://www.w3.org/2000/svg">
<rect y="0.000488281" width="50" height="50" rx="10" fill="#F5F6FA"/>
<mask id="mask0_36_74" style="mask-type:alpha" maskUnits="userSpaceOnUse" x="11" y="11" width="28" height="29">
<rect x="11" y="11.0005" width="28" height="28" fill="white"/>
</mask>
<g mask="url(#mask0_36_74)">
</g>
<path d="M33.4752 21.0088C33.4855 21.1938 33.4855 21.3789 33.4855 21.5538C33.4828 22.6924 33.3166 23.8248 32.9918 24.9162C32.3075 27.4313 30.8049 29.6467 28.7212 31.2128C26.6375 32.7788 24.0916 33.6061 21.4854 33.5641C19.1912 33.5666 16.9451 32.906 15.0176 31.6617C15.3519 31.7031 15.6884 31.7237 16.0253 31.7234C17.9237 31.7252 19.7674 31.0877 21.2593 29.9136C20.3806 29.8971 19.5289 29.6069 18.823 29.0835C18.117 28.56 17.592 27.8294 17.321 26.9933C17.5826 27.0382 17.8473 27.0622 18.1128 27.0653C18.4917 27.0667 18.869 27.0148 19.2335 26.9111C18.3311 26.7324 17.5123 26.2623 16.903 25.5731C16.2937 24.8839 15.9275 24.0137 15.8608 23.0962C15.8437 22.9908 15.8368 22.8841 15.8402 22.7774V22.726C16.4262 23.0522 17.0823 23.2321 17.7528 23.2504C17.1757 22.8658 16.7028 22.3443 16.3763 21.7325C16.0498 21.1206 15.8797 20.4375 15.8814 19.744C15.8806 18.9973 16.0756 18.2634 16.4469 17.6155C17.5059 18.9203 18.8279 19.9875 20.3267 20.7476C21.8255 21.5076 23.4676 21.9435 25.1461 22.0268C24.9337 21.1219 25.0261 20.1723 25.4088 19.3254C25.7916 18.4785 26.4434 17.7816 27.2628 17.3432C28.0823 16.9047 29.0237 16.7492 29.9406 16.9007C30.8576 17.0522 31.6989 17.5023 32.3338 18.181C33.2806 17.9942 34.1883 17.6464 35.0176 17.1527C35.0533 17.8686 34.9339 18.5838 34.6677 19.2493C34.4015 19.9148 33.9947 20.515 33.4752 21.0088Z" fill="#AAB0B7"/>
</svg>
