<svg width="106" height="32" viewBox="0 0 106 32" fill="none" xmlns="http://www.w3.org/2000/svg">
<path d="M38.7021 31.1635L44.0635 1.00586L52.4406 1.00586L47.2468 31.1635H38.7021Z" fill="#939191"/>
<path d="M38.7021 31.1635L45.5714 1.00586L52.4406 1.00586L47.2468 31.1635H38.7021Z" fill="#939191"/>
<path d="M77.5724 1.34034C75.897 0.670171 73.2163 0 69.8655 0C61.4884 0 55.4569 4.18856 55.4569 10.2201C55.4569 14.7437 59.6454 17.0893 62.9963 18.5972C66.3471 20.1051 67.3524 21.1103 67.3524 22.4507C67.3524 24.4612 64.6717 25.4664 62.3261 25.4664C58.9753 25.4664 57.1323 24.9638 54.2841 23.791L53.1113 23.2884L51.9385 30.1576C53.949 30.9953 57.6349 31.833 61.4884 31.833C70.3681 31.833 76.2321 27.6445 76.2321 21.2779C76.2321 17.7595 74.0541 15.0788 69.0278 12.9008C66.012 11.3929 64.1691 10.5552 64.1691 9.04728C64.1691 7.70694 65.6769 6.36661 69.0278 6.36661C71.876 6.36661 73.8865 6.86923 75.3944 7.5394L76.2321 7.87449L77.5724 1.34034Z" fill="#939191"/>
<path d="M77.5724 1.34034C75.897 0.670171 73.2163 0 69.8655 0C61.4884 0 56.9647 4.18856 56.9647 10.2201C56.9647 14.7437 59.6454 17.0893 62.9963 18.5972C66.3471 20.1051 67.3524 21.1103 67.3524 22.4507C67.3524 24.4612 64.6717 25.4664 62.3261 25.4664C58.9753 25.4664 57.1323 24.9638 54.2841 23.791L53.1113 23.2884L51.9385 30.1576C53.949 30.9953 57.6349 31.833 61.4884 31.833C70.3681 31.833 76.2321 27.6445 76.2321 21.2779C76.2321 17.7595 74.0541 15.0788 69.0278 12.9008C66.012 11.3929 64.1691 10.5552 64.1691 9.04728C64.1691 7.70694 65.6769 6.36661 69.0278 6.36661C71.876 6.36661 73.8865 6.86923 75.3944 7.5394L76.2321 7.87449L77.5724 1.34034Z" fill="#939191"/>
<path d="M91.9804 1.00586C89.9699 1.00586 88.462 1.1734 87.6243 3.18391L75.0586 31.1635H84.1059L85.7813 26.1372H96.504L97.5093 31.1635H105.551L98.5145 1.00586L91.9804 1.00586ZM88.1269 21.1109C88.6295 19.603 91.4777 12.2312 91.4777 12.2312C91.4777 12.2312 92.1479 10.3882 92.6505 9.21543L93.1532 12.0636C93.1532 12.0636 94.8286 19.603 95.1637 21.2785H88.1269V21.1109Z" fill="#939191"/>
<path d="M93.9909 1.00586C91.9804 1.00586 90.4725 1.1734 89.6348 3.18391L75.0586 31.1635H84.1059L85.7813 26.1372H96.504L97.5093 31.1635H105.551L98.5145 1.00586L93.9909 1.00586ZM88.1269 21.1109C88.7971 19.4355 91.4777 12.2312 91.4777 12.2312C91.4777 12.2312 92.1479 10.3882 92.6505 9.21543L93.1532 12.0636C93.1532 12.0636 94.8286 19.603 95.1637 21.2785H88.1269V21.1109Z" fill="#939191"/>
<path d="M23.2883 22.1166L22.4506 17.7605C20.9427 12.7342 16.084 7.20535 10.7227 4.52467L18.2621 31.3314H27.3093L40.8803 1.17383L31.833 1.17383L23.2883 22.1166Z" fill="#939191"/>
<path d="M23.2883 22.1166L22.4506 17.7605C20.9427 12.7342 16.084 7.20535 10.7227 4.52467L18.2621 31.3314H27.3093L40.8803 1.17383L33.5084 1.17383L23.2883 22.1166Z" fill="#939191"/>
<path d="M0 1.00586L1.50788 1.34095C12.2306 3.85408 19.6024 10.2207 22.4507 17.7601L19.4349 3.51899C18.9323 1.50849 17.4244 1.00586 15.5814 1.00586L0 1.00586Z" fill="#939191"/>
<path d="M0 1.00586C10.7227 3.51899 19.6024 10.0531 22.4507 17.5925L19.6024 5.69704C19.0998 3.68653 17.4244 2.51374 15.5814 2.51374L0 1.00586Z" fill="#939191"/>
<path d="M0 1.00586C10.7227 3.51899 19.6024 10.0531 22.4507 17.5925L20.4402 11.0584C19.9375 9.04789 19.2674 7.03738 16.9218 6.19967L0 1.00586Z" fill="#939191"/>
<path d="M31.6649 21.1097L25.9684 15.4133L23.2878 21.7799L22.6176 17.5913C21.1097 12.565 16.251 7.03614 10.8896 4.35547L18.429 31.1622H27.4763L31.6649 21.1097Z" fill="#939191"/>
<path d="M47.2468 31.1629L40.0425 23.791L38.7021 31.1629H47.2468Z" fill="#939191"/>
<path d="M66.5146 20.7744C67.1848 21.4446 67.5199 21.9472 67.3524 22.6174C67.3524 24.6279 64.6717 25.6331 62.3261 25.6331C58.9753 25.6331 57.1323 25.1305 54.2841 23.9577L53.1113 23.4551L51.9385 30.3243C53.949 31.162 57.6349 31.9997 61.4884 31.9997C66.8497 31.9997 71.2058 30.4919 73.719 27.8112L66.5146 20.7744Z" fill="#939191"/>
<path d="M76.2314 31.1629H84.1059L85.7814 26.1366H96.504L97.5093 31.1629H105.551L102.703 18.9323L92.6506 9.21484L93.1532 11.8955C93.1532 11.8955 94.8286 19.4349 95.1637 21.1103H88.1269C88.7971 19.4349 91.4778 12.2306 91.4778 12.2306C91.4778 12.2306 92.148 10.3876 92.6506 9.21484" fill="#939191"/>
</svg>
